G04 #@! TF.GenerationSoftware,KiCad,Pcbnew,(5.0.2)-1*
G04 #@! TF.CreationDate,2019-05-05T16:29:57-05:00*
G04 #@! TF.ProjectId,SL40,534c3430-2e6b-4696-9361-645f70636258,rev?*
G04 #@! TF.SameCoordinates,Original*
G04 #@! TF.FileFunction,Copper,L2,Bot*
G04 #@! TF.FilePolarity,Positive*
%FSLAX46Y46*%
G04 Gerber Fmt 4.6, Leading zero omitted, Abs format (unit mm)*
G04 Created by KiCad (PCBNEW (5.0.2)-1) date 5/5/2019 4:29:57 PM*
%MOMM*%
%LPD*%
G01*
G04 APERTURE LIST*
G04 #@! TA.AperFunction,Conductor*
%ADD10R,0.500000X1.524000*%
G04 #@! TD*
G04 #@! TA.AperFunction,ComponentPad*
%ADD11C,1.524000*%
G04 #@! TD*
G04 #@! TA.AperFunction,ComponentPad*
%ADD12R,1.524000X1.524000*%
G04 #@! TD*
G04 #@! TA.AperFunction,SMDPad,CuDef*
%ADD13R,1.200000X0.900000*%
G04 #@! TD*
G04 #@! TA.AperFunction,Conductor*
%ADD14R,1.524000X0.500000*%
G04 #@! TD*
G04 #@! TA.AperFunction,SMDPad,CuDef*
%ADD15R,0.900000X1.200000*%
G04 #@! TD*
G04 #@! TA.AperFunction,ComponentPad*
%ADD16C,2.250000*%
G04 #@! TD*
G04 #@! TA.AperFunction,Conductor*
%ADD17C,2.250000*%
G04 #@! TD*
G04 #@! TA.AperFunction,SMDPad,CuDef*
%ADD18R,1.100000X1.800000*%
G04 #@! TD*
G04 #@! TA.AperFunction,ComponentPad*
%ADD19C,1.752600*%
G04 #@! TD*
G04 #@! TA.AperFunction,ComponentPad*
%ADD20R,1.752600X1.752600*%
G04 #@! TD*
G04 #@! TA.AperFunction,Conductor*
%ADD21C,0.250000*%
G04 #@! TD*
G04 APERTURE END LIST*
D10*
G04 #@! TO.N,*
G04 #@! TO.C,D1*
X33337500Y-65246250D03*
X33337500Y-60166250D03*
D11*
G04 #@! TD*
G04 #@! TO.P,D1,2*
G04 #@! TO.N,Net-(D1-Pad2)*
X33337500Y-58896250D03*
D12*
G04 #@! TO.P,D1,1*
G04 #@! TO.N,ROW0*
X33337500Y-66516250D03*
D13*
G04 #@! TO.P,D1,*
G04 #@! TO.N,*
X33337500Y-61056250D03*
X33337500Y-64356250D03*
G04 #@! TD*
D10*
G04 #@! TO.N,*
G04 #@! TO.C,D2*
X52387500Y-65246250D03*
X52387500Y-60166250D03*
D11*
G04 #@! TD*
G04 #@! TO.P,D2,2*
G04 #@! TO.N,Net-(D2-Pad2)*
X52387500Y-58896250D03*
D12*
G04 #@! TO.P,D2,1*
G04 #@! TO.N,ROW0*
X52387500Y-66516250D03*
D13*
G04 #@! TO.P,D2,*
G04 #@! TO.N,*
X52387500Y-61056250D03*
X52387500Y-64356250D03*
G04 #@! TD*
D10*
G04 #@! TO.N,*
G04 #@! TO.C,D3*
X71437500Y-65246250D03*
X71437500Y-60166250D03*
D11*
G04 #@! TD*
G04 #@! TO.P,D3,2*
G04 #@! TO.N,Net-(D3-Pad2)*
X71437500Y-58896250D03*
D12*
G04 #@! TO.P,D3,1*
G04 #@! TO.N,ROW0*
X71437500Y-66516250D03*
D13*
G04 #@! TO.P,D3,*
G04 #@! TO.N,*
X71437500Y-61056250D03*
X71437500Y-64356250D03*
G04 #@! TD*
D10*
G04 #@! TO.N,*
G04 #@! TO.C,D4*
X90487500Y-65246250D03*
X90487500Y-60166250D03*
D11*
G04 #@! TD*
G04 #@! TO.P,D4,2*
G04 #@! TO.N,Net-(D4-Pad2)*
X90487500Y-58896250D03*
D12*
G04 #@! TO.P,D4,1*
G04 #@! TO.N,ROW0*
X90487500Y-66516250D03*
D13*
G04 #@! TO.P,D4,*
G04 #@! TO.N,*
X90487500Y-61056250D03*
X90487500Y-64356250D03*
G04 #@! TD*
D10*
G04 #@! TO.N,*
G04 #@! TO.C,D5*
X109537500Y-65246250D03*
X109537500Y-60166250D03*
D11*
G04 #@! TD*
G04 #@! TO.P,D5,2*
G04 #@! TO.N,Net-(D5-Pad2)*
X109537500Y-58896250D03*
D12*
G04 #@! TO.P,D5,1*
G04 #@! TO.N,ROW0*
X109537500Y-66516250D03*
D13*
G04 #@! TO.P,D5,*
G04 #@! TO.N,*
X109537500Y-61056250D03*
X109537500Y-64356250D03*
G04 #@! TD*
D10*
G04 #@! TO.N,*
G04 #@! TO.C,D6*
X128587500Y-65246250D03*
X128587500Y-60166250D03*
D11*
G04 #@! TD*
G04 #@! TO.P,D6,2*
G04 #@! TO.N,Net-(D6-Pad2)*
X128587500Y-58896250D03*
D12*
G04 #@! TO.P,D6,1*
G04 #@! TO.N,ROW0*
X128587500Y-66516250D03*
D13*
G04 #@! TO.P,D6,*
G04 #@! TO.N,*
X128587500Y-61056250D03*
X128587500Y-64356250D03*
G04 #@! TD*
D10*
G04 #@! TO.N,*
G04 #@! TO.C,D7*
X147637500Y-65246250D03*
X147637500Y-60166250D03*
D11*
G04 #@! TD*
G04 #@! TO.P,D7,2*
G04 #@! TO.N,Net-(D7-Pad2)*
X147637500Y-58896250D03*
D12*
G04 #@! TO.P,D7,1*
G04 #@! TO.N,ROW0*
X147637500Y-66516250D03*
D13*
G04 #@! TO.P,D7,*
G04 #@! TO.N,*
X147637500Y-61056250D03*
X147637500Y-64356250D03*
G04 #@! TD*
D10*
G04 #@! TO.N,*
G04 #@! TO.C,D8*
X166687500Y-65246250D03*
X166687500Y-60166250D03*
D11*
G04 #@! TD*
G04 #@! TO.P,D8,2*
G04 #@! TO.N,Net-(D8-Pad2)*
X166687500Y-58896250D03*
D12*
G04 #@! TO.P,D8,1*
G04 #@! TO.N,ROW0*
X166687500Y-66516250D03*
D13*
G04 #@! TO.P,D8,*
G04 #@! TO.N,*
X166687500Y-61056250D03*
X166687500Y-64356250D03*
G04 #@! TD*
D10*
G04 #@! TO.N,*
G04 #@! TO.C,D9*
X185737500Y-65246250D03*
X185737500Y-60166250D03*
D11*
G04 #@! TD*
G04 #@! TO.P,D9,2*
G04 #@! TO.N,Net-(D9-Pad2)*
X185737500Y-58896250D03*
D12*
G04 #@! TO.P,D9,1*
G04 #@! TO.N,ROW0*
X185737500Y-66516250D03*
D13*
G04 #@! TO.P,D9,*
G04 #@! TO.N,*
X185737500Y-61056250D03*
X185737500Y-64356250D03*
G04 #@! TD*
D10*
G04 #@! TO.N,*
G04 #@! TO.C,D10*
X204787500Y-65246250D03*
X204787500Y-60166250D03*
D11*
G04 #@! TD*
G04 #@! TO.P,D10,2*
G04 #@! TO.N,Net-(D10-Pad2)*
X204787500Y-58896250D03*
D12*
G04 #@! TO.P,D10,1*
G04 #@! TO.N,ROW0*
X204787500Y-66516250D03*
D13*
G04 #@! TO.P,D10,*
G04 #@! TO.N,*
X204787500Y-61056250D03*
X204787500Y-64356250D03*
G04 #@! TD*
D10*
G04 #@! TO.N,*
G04 #@! TO.C,D11*
X223837500Y-65246250D03*
X223837500Y-60166250D03*
D11*
G04 #@! TD*
G04 #@! TO.P,D11,2*
G04 #@! TO.N,Net-(D11-Pad2)*
X223837500Y-58896250D03*
D12*
G04 #@! TO.P,D11,1*
G04 #@! TO.N,ROW0*
X223837500Y-66516250D03*
D13*
G04 #@! TO.P,D11,*
G04 #@! TO.N,*
X223837500Y-61056250D03*
X223837500Y-64356250D03*
G04 #@! TD*
D10*
G04 #@! TO.N,*
G04 #@! TO.C,D12*
X242887500Y-65246250D03*
X242887500Y-60166250D03*
D11*
G04 #@! TD*
G04 #@! TO.P,D12,2*
G04 #@! TO.N,Net-(D12-Pad2)*
X242887500Y-58896250D03*
D12*
G04 #@! TO.P,D12,1*
G04 #@! TO.N,ROW0*
X242887500Y-66516250D03*
D13*
G04 #@! TO.P,D12,*
G04 #@! TO.N,*
X242887500Y-61056250D03*
X242887500Y-64356250D03*
G04 #@! TD*
D10*
G04 #@! TO.N,*
G04 #@! TO.C,D13*
X261937500Y-65246250D03*
X261937500Y-60166250D03*
D11*
G04 #@! TD*
G04 #@! TO.P,D13,2*
G04 #@! TO.N,Net-(D13-Pad2)*
X261937500Y-58896250D03*
D12*
G04 #@! TO.P,D13,1*
G04 #@! TO.N,ROW0*
X261937500Y-66516250D03*
D13*
G04 #@! TO.P,D13,*
G04 #@! TO.N,*
X261937500Y-61056250D03*
X261937500Y-64356250D03*
G04 #@! TD*
D10*
G04 #@! TO.N,*
G04 #@! TO.C,D14*
X275431250Y-84296250D03*
X275431250Y-79216250D03*
D11*
G04 #@! TD*
G04 #@! TO.P,D14,2*
G04 #@! TO.N,Net-(D14-Pad2)*
X275431250Y-77946250D03*
D12*
G04 #@! TO.P,D14,1*
G04 #@! TO.N,ROW0*
X275431250Y-85566250D03*
D13*
G04 #@! TO.P,D14,*
G04 #@! TO.N,*
X275431250Y-80106250D03*
X275431250Y-83406250D03*
G04 #@! TD*
D14*
G04 #@! TO.N,*
G04 #@! TO.C,D15*
X35083750Y-70643750D03*
X30003750Y-70643750D03*
D11*
G04 #@! TD*
G04 #@! TO.P,D15,2*
G04 #@! TO.N,Net-(D15-Pad2)*
X28733750Y-70643750D03*
D12*
G04 #@! TO.P,D15,1*
G04 #@! TO.N,ROW1*
X36353750Y-70643750D03*
D15*
G04 #@! TO.P,D15,*
G04 #@! TO.N,*
X30893750Y-70643750D03*
X34193750Y-70643750D03*
G04 #@! TD*
D10*
G04 #@! TO.N,*
G04 #@! TO.C,D16*
X57150000Y-84296250D03*
X57150000Y-79216250D03*
D11*
G04 #@! TD*
G04 #@! TO.P,D16,2*
G04 #@! TO.N,Net-(D16-Pad2)*
X57150000Y-77946250D03*
D12*
G04 #@! TO.P,D16,1*
G04 #@! TO.N,ROW1*
X57150000Y-85566250D03*
D13*
G04 #@! TO.P,D16,*
G04 #@! TO.N,*
X57150000Y-80106250D03*
X57150000Y-83406250D03*
G04 #@! TD*
D10*
G04 #@! TO.N,*
G04 #@! TO.C,D17*
X76200000Y-84296250D03*
X76200000Y-79216250D03*
D11*
G04 #@! TD*
G04 #@! TO.P,D17,2*
G04 #@! TO.N,Net-(D17-Pad2)*
X76200000Y-77946250D03*
D12*
G04 #@! TO.P,D17,1*
G04 #@! TO.N,ROW1*
X76200000Y-85566250D03*
D13*
G04 #@! TO.P,D17,*
G04 #@! TO.N,*
X76200000Y-80106250D03*
X76200000Y-83406250D03*
G04 #@! TD*
D10*
G04 #@! TO.N,*
G04 #@! TO.C,D18*
X95250000Y-84296250D03*
X95250000Y-79216250D03*
D11*
G04 #@! TD*
G04 #@! TO.P,D18,2*
G04 #@! TO.N,Net-(D18-Pad2)*
X95250000Y-77946250D03*
D12*
G04 #@! TO.P,D18,1*
G04 #@! TO.N,ROW1*
X95250000Y-85566250D03*
D13*
G04 #@! TO.P,D18,*
G04 #@! TO.N,*
X95250000Y-80106250D03*
X95250000Y-83406250D03*
G04 #@! TD*
D10*
G04 #@! TO.N,*
G04 #@! TO.C,D20*
X133350000Y-84296250D03*
X133350000Y-79216250D03*
D11*
G04 #@! TD*
G04 #@! TO.P,D20,2*
G04 #@! TO.N,Net-(D20-Pad2)*
X133350000Y-77946250D03*
D12*
G04 #@! TO.P,D20,1*
G04 #@! TO.N,ROW1*
X133350000Y-85566250D03*
D13*
G04 #@! TO.P,D20,*
G04 #@! TO.N,*
X133350000Y-80106250D03*
X133350000Y-83406250D03*
G04 #@! TD*
D10*
G04 #@! TO.N,*
G04 #@! TO.C,D21*
X152400000Y-84296250D03*
X152400000Y-79216250D03*
D11*
G04 #@! TD*
G04 #@! TO.P,D21,2*
G04 #@! TO.N,Net-(D21-Pad2)*
X152400000Y-77946250D03*
D12*
G04 #@! TO.P,D21,1*
G04 #@! TO.N,ROW1*
X152400000Y-85566250D03*
D13*
G04 #@! TO.P,D21,*
G04 #@! TO.N,*
X152400000Y-80106250D03*
X152400000Y-83406250D03*
G04 #@! TD*
D10*
G04 #@! TO.N,*
G04 #@! TO.C,D22*
X171450000Y-84296250D03*
X171450000Y-79216250D03*
D11*
G04 #@! TD*
G04 #@! TO.P,D22,2*
G04 #@! TO.N,Net-(D22-Pad2)*
X171450000Y-77946250D03*
D12*
G04 #@! TO.P,D22,1*
G04 #@! TO.N,ROW1*
X171450000Y-85566250D03*
D13*
G04 #@! TO.P,D22,*
G04 #@! TO.N,*
X171450000Y-80106250D03*
X171450000Y-83406250D03*
G04 #@! TD*
D10*
G04 #@! TO.N,*
G04 #@! TO.C,D23*
X190500000Y-84296250D03*
X190500000Y-79216250D03*
D11*
G04 #@! TD*
G04 #@! TO.P,D23,2*
G04 #@! TO.N,Net-(D23-Pad2)*
X190500000Y-77946250D03*
D12*
G04 #@! TO.P,D23,1*
G04 #@! TO.N,ROW1*
X190500000Y-85566250D03*
D13*
G04 #@! TO.P,D23,*
G04 #@! TO.N,*
X190500000Y-80106250D03*
X190500000Y-83406250D03*
G04 #@! TD*
D10*
G04 #@! TO.N,*
G04 #@! TO.C,D24*
X209550000Y-84296250D03*
X209550000Y-79216250D03*
D11*
G04 #@! TD*
G04 #@! TO.P,D24,2*
G04 #@! TO.N,Net-(D24-Pad2)*
X209550000Y-77946250D03*
D12*
G04 #@! TO.P,D24,1*
G04 #@! TO.N,ROW1*
X209550000Y-85566250D03*
D13*
G04 #@! TO.P,D24,*
G04 #@! TO.N,*
X209550000Y-80106250D03*
X209550000Y-83406250D03*
G04 #@! TD*
D10*
G04 #@! TO.N,*
G04 #@! TO.C,D25*
X228600000Y-84296250D03*
X228600000Y-79216250D03*
D11*
G04 #@! TD*
G04 #@! TO.P,D25,2*
G04 #@! TO.N,Net-(D25-Pad2)*
X228600000Y-77946250D03*
D12*
G04 #@! TO.P,D25,1*
G04 #@! TO.N,ROW1*
X228600000Y-85566250D03*
D13*
G04 #@! TO.P,D25,*
G04 #@! TO.N,*
X228600000Y-80106250D03*
X228600000Y-83406250D03*
G04 #@! TD*
D10*
G04 #@! TO.N,*
G04 #@! TO.C,D26*
X247650000Y-84296250D03*
X247650000Y-79216250D03*
D11*
G04 #@! TD*
G04 #@! TO.P,D26,2*
G04 #@! TO.N,Net-(D26-Pad2)*
X247650000Y-77946250D03*
D12*
G04 #@! TO.P,D26,1*
G04 #@! TO.N,ROW1*
X247650000Y-85566250D03*
D13*
G04 #@! TO.P,D26,*
G04 #@! TO.N,*
X247650000Y-80106250D03*
X247650000Y-83406250D03*
G04 #@! TD*
D10*
G04 #@! TO.N,*
G04 #@! TO.C,D27*
X254793750Y-84455000D03*
X254793750Y-79375000D03*
D11*
G04 #@! TD*
G04 #@! TO.P,D27,2*
G04 #@! TO.N,Net-(D27-Pad2)*
X254793750Y-78105000D03*
D12*
G04 #@! TO.P,D27,1*
G04 #@! TO.N,ROW1*
X254793750Y-85725000D03*
D13*
G04 #@! TO.P,D27,*
G04 #@! TO.N,*
X254793750Y-80265000D03*
X254793750Y-83565000D03*
G04 #@! TD*
D10*
G04 #@! TO.N,*
G04 #@! TO.C,D28*
X21431250Y-103346250D03*
X21431250Y-98266250D03*
D11*
G04 #@! TD*
G04 #@! TO.P,D28,2*
G04 #@! TO.N,Net-(D28-Pad2)*
X21431250Y-96996250D03*
D12*
G04 #@! TO.P,D28,1*
G04 #@! TO.N,ROW2*
X21431250Y-104616250D03*
D13*
G04 #@! TO.P,D28,*
G04 #@! TO.N,*
X21431250Y-99156250D03*
X21431250Y-102456250D03*
G04 #@! TD*
D10*
G04 #@! TO.N,*
G04 #@! TO.C,D29*
X66675000Y-103346250D03*
X66675000Y-98266250D03*
D11*
G04 #@! TD*
G04 #@! TO.P,D29,2*
G04 #@! TO.N,Net-(D29-Pad2)*
X66675000Y-96996250D03*
D12*
G04 #@! TO.P,D29,1*
G04 #@! TO.N,ROW2*
X66675000Y-104616250D03*
D13*
G04 #@! TO.P,D29,*
G04 #@! TO.N,*
X66675000Y-99156250D03*
X66675000Y-102456250D03*
G04 #@! TD*
D10*
G04 #@! TO.N,*
G04 #@! TO.C,D30*
X85725000Y-103346250D03*
X85725000Y-98266250D03*
D11*
G04 #@! TD*
G04 #@! TO.P,D30,2*
G04 #@! TO.N,Net-(D30-Pad2)*
X85725000Y-96996250D03*
D12*
G04 #@! TO.P,D30,1*
G04 #@! TO.N,ROW2*
X85725000Y-104616250D03*
D13*
G04 #@! TO.P,D30,*
G04 #@! TO.N,*
X85725000Y-99156250D03*
X85725000Y-102456250D03*
G04 #@! TD*
D10*
G04 #@! TO.N,*
G04 #@! TO.C,D31*
X104775000Y-103346250D03*
X104775000Y-98266250D03*
D11*
G04 #@! TD*
G04 #@! TO.P,D31,2*
G04 #@! TO.N,Net-(D31-Pad2)*
X104775000Y-96996250D03*
D12*
G04 #@! TO.P,D31,1*
G04 #@! TO.N,ROW2*
X104775000Y-104616250D03*
D13*
G04 #@! TO.P,D31,*
G04 #@! TO.N,*
X104775000Y-99156250D03*
X104775000Y-102456250D03*
G04 #@! TD*
D10*
G04 #@! TO.N,*
G04 #@! TO.C,D32*
X123825000Y-103346250D03*
X123825000Y-98266250D03*
D11*
G04 #@! TD*
G04 #@! TO.P,D32,2*
G04 #@! TO.N,Net-(D32-Pad2)*
X123825000Y-96996250D03*
D12*
G04 #@! TO.P,D32,1*
G04 #@! TO.N,ROW2*
X123825000Y-104616250D03*
D13*
G04 #@! TO.P,D32,*
G04 #@! TO.N,*
X123825000Y-99156250D03*
X123825000Y-102456250D03*
G04 #@! TD*
D10*
G04 #@! TO.N,*
G04 #@! TO.C,D33*
X142875000Y-103346250D03*
X142875000Y-98266250D03*
D11*
G04 #@! TD*
G04 #@! TO.P,D33,2*
G04 #@! TO.N,Net-(D33-Pad2)*
X142875000Y-96996250D03*
D12*
G04 #@! TO.P,D33,1*
G04 #@! TO.N,ROW2*
X142875000Y-104616250D03*
D13*
G04 #@! TO.P,D33,*
G04 #@! TO.N,*
X142875000Y-99156250D03*
X142875000Y-102456250D03*
G04 #@! TD*
D10*
G04 #@! TO.N,*
G04 #@! TO.C,D34*
X161925000Y-103346250D03*
X161925000Y-98266250D03*
D11*
G04 #@! TD*
G04 #@! TO.P,D34,2*
G04 #@! TO.N,Net-(D34-Pad2)*
X161925000Y-96996250D03*
D12*
G04 #@! TO.P,D34,1*
G04 #@! TO.N,ROW2*
X161925000Y-104616250D03*
D13*
G04 #@! TO.P,D34,*
G04 #@! TO.N,*
X161925000Y-99156250D03*
X161925000Y-102456250D03*
G04 #@! TD*
D10*
G04 #@! TO.N,*
G04 #@! TO.C,D35*
X180975000Y-103346250D03*
X180975000Y-98266250D03*
D11*
G04 #@! TD*
G04 #@! TO.P,D35,2*
G04 #@! TO.N,Net-(D35-Pad2)*
X180975000Y-96996250D03*
D12*
G04 #@! TO.P,D35,1*
G04 #@! TO.N,ROW2*
X180975000Y-104616250D03*
D13*
G04 #@! TO.P,D35,*
G04 #@! TO.N,*
X180975000Y-99156250D03*
X180975000Y-102456250D03*
G04 #@! TD*
D10*
G04 #@! TO.N,*
G04 #@! TO.C,D36*
X200025000Y-103346250D03*
X200025000Y-98266250D03*
D11*
G04 #@! TD*
G04 #@! TO.P,D36,2*
G04 #@! TO.N,Net-(D36-Pad2)*
X200025000Y-96996250D03*
D12*
G04 #@! TO.P,D36,1*
G04 #@! TO.N,ROW2*
X200025000Y-104616250D03*
D13*
G04 #@! TO.P,D36,*
G04 #@! TO.N,*
X200025000Y-99156250D03*
X200025000Y-102456250D03*
G04 #@! TD*
D10*
G04 #@! TO.N,*
G04 #@! TO.C,D37*
X219075000Y-103346250D03*
X219075000Y-98266250D03*
D11*
G04 #@! TD*
G04 #@! TO.P,D37,2*
G04 #@! TO.N,Net-(D37-Pad2)*
X219075000Y-96996250D03*
D12*
G04 #@! TO.P,D37,1*
G04 #@! TO.N,ROW2*
X219075000Y-104616250D03*
D13*
G04 #@! TO.P,D37,*
G04 #@! TO.N,*
X219075000Y-99156250D03*
X219075000Y-102456250D03*
G04 #@! TD*
D10*
G04 #@! TO.N,*
G04 #@! TO.C,D38*
X239712500Y-103346250D03*
X239712500Y-98266250D03*
D11*
G04 #@! TD*
G04 #@! TO.P,D38,2*
G04 #@! TO.N,Net-(D38-Pad2)*
X239712500Y-96996250D03*
D12*
G04 #@! TO.P,D38,1*
G04 #@! TO.N,ROW2*
X239712500Y-104616250D03*
D13*
G04 #@! TO.P,D38,*
G04 #@! TO.N,*
X239712500Y-99156250D03*
X239712500Y-102456250D03*
G04 #@! TD*
D10*
G04 #@! TO.N,*
G04 #@! TO.C,D39*
X243681250Y-103346250D03*
X243681250Y-98266250D03*
D11*
G04 #@! TD*
G04 #@! TO.P,D39,2*
G04 #@! TO.N,Net-(D39-Pad2)*
X243681250Y-96996250D03*
D12*
G04 #@! TO.P,D39,1*
G04 #@! TO.N,ROW2*
X243681250Y-104616250D03*
D13*
G04 #@! TO.P,D39,*
G04 #@! TO.N,*
X243681250Y-99156250D03*
X243681250Y-102456250D03*
G04 #@! TD*
D10*
G04 #@! TO.N,*
G04 #@! TO.C,D40*
X261937500Y-103346250D03*
X261937500Y-98266250D03*
D11*
G04 #@! TD*
G04 #@! TO.P,D40,2*
G04 #@! TO.N,Net-(D40-Pad2)*
X261937500Y-96996250D03*
D12*
G04 #@! TO.P,D40,1*
G04 #@! TO.N,ROW2*
X261937500Y-104616250D03*
D13*
G04 #@! TO.P,D40,*
G04 #@! TO.N,*
X261937500Y-99156250D03*
X261937500Y-102456250D03*
G04 #@! TD*
D10*
G04 #@! TO.N,*
G04 #@! TO.C,D41*
X36512500Y-122396250D03*
X36512500Y-117316250D03*
D11*
G04 #@! TD*
G04 #@! TO.P,D41,2*
G04 #@! TO.N,Net-(D41-Pad2)*
X36512500Y-116046250D03*
D12*
G04 #@! TO.P,D41,1*
G04 #@! TO.N,ROW3*
X36512500Y-123666250D03*
D13*
G04 #@! TO.P,D41,*
G04 #@! TO.N,*
X36512500Y-118206250D03*
X36512500Y-121506250D03*
G04 #@! TD*
D10*
G04 #@! TO.N,*
G04 #@! TO.C,D42*
X61912500Y-122396250D03*
X61912500Y-117316250D03*
D11*
G04 #@! TD*
G04 #@! TO.P,D42,2*
G04 #@! TO.N,Net-(D42-Pad2)*
X61912500Y-116046250D03*
D12*
G04 #@! TO.P,D42,1*
G04 #@! TO.N,ROW3*
X61912500Y-123666250D03*
D13*
G04 #@! TO.P,D42,*
G04 #@! TO.N,*
X61912500Y-118206250D03*
X61912500Y-121506250D03*
G04 #@! TD*
D10*
G04 #@! TO.N,*
G04 #@! TO.C,D43*
X85725000Y-122396250D03*
X85725000Y-117316250D03*
D11*
G04 #@! TD*
G04 #@! TO.P,D43,2*
G04 #@! TO.N,Net-(D43-Pad2)*
X85725000Y-116046250D03*
D12*
G04 #@! TO.P,D43,1*
G04 #@! TO.N,ROW3*
X85725000Y-123666250D03*
D13*
G04 #@! TO.P,D43,*
G04 #@! TO.N,*
X85725000Y-118206250D03*
X85725000Y-121506250D03*
G04 #@! TD*
D10*
G04 #@! TO.N,*
G04 #@! TO.C,D44*
X154781250Y-122396250D03*
X154781250Y-117316250D03*
D11*
G04 #@! TD*
G04 #@! TO.P,D44,2*
G04 #@! TO.N,Net-(D44-Pad2)*
X154781250Y-116046250D03*
D12*
G04 #@! TO.P,D44,1*
G04 #@! TO.N,ROW3*
X154781250Y-123666250D03*
D13*
G04 #@! TO.P,D44,*
G04 #@! TO.N,*
X154781250Y-118206250D03*
X154781250Y-121506250D03*
G04 #@! TD*
D10*
G04 #@! TO.N,*
G04 #@! TO.C,D45*
X223837500Y-122396250D03*
X223837500Y-117316250D03*
D11*
G04 #@! TD*
G04 #@! TO.P,D45,2*
G04 #@! TO.N,Net-(D45-Pad2)*
X223837500Y-116046250D03*
D12*
G04 #@! TO.P,D45,1*
G04 #@! TO.N,ROW3*
X223837500Y-123666250D03*
D13*
G04 #@! TO.P,D45,*
G04 #@! TO.N,*
X223837500Y-118206250D03*
X223837500Y-121506250D03*
G04 #@! TD*
D10*
G04 #@! TO.N,*
G04 #@! TO.C,D46*
X242887500Y-122396250D03*
X242887500Y-117316250D03*
D11*
G04 #@! TD*
G04 #@! TO.P,D46,2*
G04 #@! TO.N,Net-(D46-Pad2)*
X242887500Y-116046250D03*
D12*
G04 #@! TO.P,D46,1*
G04 #@! TO.N,ROW3*
X242887500Y-123666250D03*
D13*
G04 #@! TO.P,D46,*
G04 #@! TO.N,*
X242887500Y-118206250D03*
X242887500Y-121506250D03*
G04 #@! TD*
D10*
G04 #@! TO.N,*
G04 #@! TO.C,D47*
X261937500Y-122396250D03*
X261937500Y-117316250D03*
D11*
G04 #@! TD*
G04 #@! TO.P,D47,2*
G04 #@! TO.N,Net-(D47-Pad2)*
X261937500Y-116046250D03*
D12*
G04 #@! TO.P,D47,1*
G04 #@! TO.N,ROW3*
X261937500Y-123666250D03*
D13*
G04 #@! TO.P,D47,*
G04 #@! TO.N,*
X261937500Y-118206250D03*
X261937500Y-121506250D03*
G04 #@! TD*
D14*
G04 #@! TO.N,*
G04 #@! TO.C,D48*
X269716250Y-111918750D03*
X274796250Y-111918750D03*
D11*
G04 #@! TD*
G04 #@! TO.P,D48,2*
G04 #@! TO.N,Net-(D48-Pad2)*
X276066250Y-111918750D03*
D12*
G04 #@! TO.P,D48,1*
G04 #@! TO.N,ROW3*
X268446250Y-111918750D03*
D15*
G04 #@! TO.P,D48,*
G04 #@! TO.N,*
X273906250Y-111918750D03*
X270606250Y-111918750D03*
G04 #@! TD*
D10*
G04 #@! TO.N,*
G04 #@! TO.C,D19*
X114300000Y-84296250D03*
X114300000Y-79216250D03*
D11*
G04 #@! TD*
G04 #@! TO.P,D19,2*
G04 #@! TO.N,Net-(D19-Pad2)*
X114300000Y-77946250D03*
D12*
G04 #@! TO.P,D19,1*
G04 #@! TO.N,ROW1*
X114300000Y-85566250D03*
D13*
G04 #@! TO.P,D19,*
G04 #@! TO.N,*
X114300000Y-80106250D03*
X114300000Y-83406250D03*
G04 #@! TD*
D16*
G04 #@! TO.P,MX1,1*
G04 #@! TO.N,COL0*
X21312500Y-58706250D03*
X20657501Y-59436250D03*
D17*
G04 #@! TD*
G04 #@! TO.N,COL0*
G04 #@! TO.C,MX1*
X20002500Y-60166250D02*
X21312502Y-58706250D01*
D16*
G04 #@! TO.P,MX1,2*
G04 #@! TO.N,Net-(D1-Pad2)*
X26352500Y-57626250D03*
X26332500Y-57916250D03*
D17*
G04 #@! TD*
G04 #@! TO.N,Net-(D1-Pad2)*
G04 #@! TO.C,MX1*
X26312500Y-58206250D02*
X26352500Y-57626250D01*
D16*
G04 #@! TO.P,MX2,1*
G04 #@! TO.N,COL1*
X40362500Y-58706250D03*
X39707501Y-59436250D03*
D17*
G04 #@! TD*
G04 #@! TO.N,COL1*
G04 #@! TO.C,MX2*
X39052500Y-60166250D02*
X40362502Y-58706250D01*
D16*
G04 #@! TO.P,MX2,2*
G04 #@! TO.N,Net-(D2-Pad2)*
X45402500Y-57626250D03*
X45382500Y-57916250D03*
D17*
G04 #@! TD*
G04 #@! TO.N,Net-(D2-Pad2)*
G04 #@! TO.C,MX2*
X45362500Y-58206250D02*
X45402500Y-57626250D01*
D16*
G04 #@! TO.P,MX3,1*
G04 #@! TO.N,COL2*
X59412500Y-58706250D03*
X58757501Y-59436250D03*
D17*
G04 #@! TD*
G04 #@! TO.N,COL2*
G04 #@! TO.C,MX3*
X58102500Y-60166250D02*
X59412502Y-58706250D01*
D16*
G04 #@! TO.P,MX3,2*
G04 #@! TO.N,Net-(D3-Pad2)*
X64452500Y-57626250D03*
X64432500Y-57916250D03*
D17*
G04 #@! TD*
G04 #@! TO.N,Net-(D3-Pad2)*
G04 #@! TO.C,MX3*
X64412500Y-58206250D02*
X64452500Y-57626250D01*
D16*
G04 #@! TO.P,MX4,1*
G04 #@! TO.N,COL3*
X78462500Y-58706250D03*
X77807501Y-59436250D03*
D17*
G04 #@! TD*
G04 #@! TO.N,COL3*
G04 #@! TO.C,MX4*
X77152500Y-60166250D02*
X78462502Y-58706250D01*
D16*
G04 #@! TO.P,MX4,2*
G04 #@! TO.N,Net-(D4-Pad2)*
X83502500Y-57626250D03*
X83482500Y-57916250D03*
D17*
G04 #@! TD*
G04 #@! TO.N,Net-(D4-Pad2)*
G04 #@! TO.C,MX4*
X83462500Y-58206250D02*
X83502500Y-57626250D01*
D16*
G04 #@! TO.P,MX5,1*
G04 #@! TO.N,COL4*
X97512500Y-58706250D03*
X96857501Y-59436250D03*
D17*
G04 #@! TD*
G04 #@! TO.N,COL4*
G04 #@! TO.C,MX5*
X96202500Y-60166250D02*
X97512502Y-58706250D01*
D16*
G04 #@! TO.P,MX5,2*
G04 #@! TO.N,Net-(D5-Pad2)*
X102552500Y-57626250D03*
X102532500Y-57916250D03*
D17*
G04 #@! TD*
G04 #@! TO.N,Net-(D5-Pad2)*
G04 #@! TO.C,MX5*
X102512500Y-58206250D02*
X102552500Y-57626250D01*
D16*
G04 #@! TO.P,MX6,1*
G04 #@! TO.N,COL5*
X116562500Y-58706250D03*
X115907501Y-59436250D03*
D17*
G04 #@! TD*
G04 #@! TO.N,COL5*
G04 #@! TO.C,MX6*
X115252500Y-60166250D02*
X116562502Y-58706250D01*
D16*
G04 #@! TO.P,MX6,2*
G04 #@! TO.N,Net-(D6-Pad2)*
X121602500Y-57626250D03*
X121582500Y-57916250D03*
D17*
G04 #@! TD*
G04 #@! TO.N,Net-(D6-Pad2)*
G04 #@! TO.C,MX6*
X121562500Y-58206250D02*
X121602500Y-57626250D01*
D16*
G04 #@! TO.P,MX7,1*
G04 #@! TO.N,COL6*
X135612500Y-58706250D03*
X134957501Y-59436250D03*
D17*
G04 #@! TD*
G04 #@! TO.N,COL6*
G04 #@! TO.C,MX7*
X134302500Y-60166250D02*
X135612502Y-58706250D01*
D16*
G04 #@! TO.P,MX7,2*
G04 #@! TO.N,Net-(D7-Pad2)*
X140652500Y-57626250D03*
X140632500Y-57916250D03*
D17*
G04 #@! TD*
G04 #@! TO.N,Net-(D7-Pad2)*
G04 #@! TO.C,MX7*
X140612500Y-58206250D02*
X140652500Y-57626250D01*
D16*
G04 #@! TO.P,MX8,1*
G04 #@! TO.N,COL7*
X154662500Y-58706250D03*
X154007501Y-59436250D03*
D17*
G04 #@! TD*
G04 #@! TO.N,COL7*
G04 #@! TO.C,MX8*
X153352500Y-60166250D02*
X154662502Y-58706250D01*
D16*
G04 #@! TO.P,MX8,2*
G04 #@! TO.N,Net-(D8-Pad2)*
X159702500Y-57626250D03*
X159682500Y-57916250D03*
D17*
G04 #@! TD*
G04 #@! TO.N,Net-(D8-Pad2)*
G04 #@! TO.C,MX8*
X159662500Y-58206250D02*
X159702500Y-57626250D01*
D16*
G04 #@! TO.P,MX9,1*
G04 #@! TO.N,COL8*
X173712500Y-58706250D03*
X173057501Y-59436250D03*
D17*
G04 #@! TD*
G04 #@! TO.N,COL8*
G04 #@! TO.C,MX9*
X172402500Y-60166250D02*
X173712502Y-58706250D01*
D16*
G04 #@! TO.P,MX9,2*
G04 #@! TO.N,Net-(D9-Pad2)*
X178752500Y-57626250D03*
X178732500Y-57916250D03*
D17*
G04 #@! TD*
G04 #@! TO.N,Net-(D9-Pad2)*
G04 #@! TO.C,MX9*
X178712500Y-58206250D02*
X178752500Y-57626250D01*
D16*
G04 #@! TO.P,MX10,1*
G04 #@! TO.N,COL9*
X192762500Y-58706250D03*
X192107501Y-59436250D03*
D17*
G04 #@! TD*
G04 #@! TO.N,COL9*
G04 #@! TO.C,MX10*
X191452500Y-60166250D02*
X192762502Y-58706250D01*
D16*
G04 #@! TO.P,MX10,2*
G04 #@! TO.N,Net-(D10-Pad2)*
X197802500Y-57626250D03*
X197782500Y-57916250D03*
D17*
G04 #@! TD*
G04 #@! TO.N,Net-(D10-Pad2)*
G04 #@! TO.C,MX10*
X197762500Y-58206250D02*
X197802500Y-57626250D01*
D16*
G04 #@! TO.P,MX11,1*
G04 #@! TO.N,COL10*
X211812500Y-58706250D03*
X211157501Y-59436250D03*
D17*
G04 #@! TD*
G04 #@! TO.N,COL10*
G04 #@! TO.C,MX11*
X210502500Y-60166250D02*
X211812502Y-58706250D01*
D16*
G04 #@! TO.P,MX11,2*
G04 #@! TO.N,Net-(D11-Pad2)*
X216852500Y-57626250D03*
X216832500Y-57916250D03*
D17*
G04 #@! TD*
G04 #@! TO.N,Net-(D11-Pad2)*
G04 #@! TO.C,MX11*
X216812500Y-58206250D02*
X216852500Y-57626250D01*
D16*
G04 #@! TO.P,MX12,1*
G04 #@! TO.N,COL11*
X230862500Y-58706250D03*
X230207501Y-59436250D03*
D17*
G04 #@! TD*
G04 #@! TO.N,COL11*
G04 #@! TO.C,MX12*
X229552500Y-60166250D02*
X230862502Y-58706250D01*
D16*
G04 #@! TO.P,MX12,2*
G04 #@! TO.N,Net-(D12-Pad2)*
X235902500Y-57626250D03*
X235882500Y-57916250D03*
D17*
G04 #@! TD*
G04 #@! TO.N,Net-(D12-Pad2)*
G04 #@! TO.C,MX12*
X235862500Y-58206250D02*
X235902500Y-57626250D01*
D16*
G04 #@! TO.P,MX13,1*
G04 #@! TO.N,COL12*
X249912500Y-58706250D03*
X249257501Y-59436250D03*
D17*
G04 #@! TD*
G04 #@! TO.N,COL12*
G04 #@! TO.C,MX13*
X248602500Y-60166250D02*
X249912502Y-58706250D01*
D16*
G04 #@! TO.P,MX13,2*
G04 #@! TO.N,Net-(D13-Pad2)*
X254952500Y-57626250D03*
X254932500Y-57916250D03*
D17*
G04 #@! TD*
G04 #@! TO.N,Net-(D13-Pad2)*
G04 #@! TO.C,MX13*
X254912500Y-58206250D02*
X254952500Y-57626250D01*
D16*
G04 #@! TO.P,MX14,1*
G04 #@! TO.N,COL13*
X268962500Y-58706250D03*
X268307501Y-59436250D03*
D17*
G04 #@! TD*
G04 #@! TO.N,COL13*
G04 #@! TO.C,MX14*
X267652500Y-60166250D02*
X268962502Y-58706250D01*
D16*
G04 #@! TO.P,MX14,2*
G04 #@! TO.N,Net-(D14-Pad2)*
X274002500Y-57626250D03*
X273982500Y-57916250D03*
D17*
G04 #@! TD*
G04 #@! TO.N,Net-(D14-Pad2)*
G04 #@! TO.C,MX14*
X273962500Y-58206250D02*
X274002500Y-57626250D01*
D16*
G04 #@! TO.P,MX15,1*
G04 #@! TO.N,COL0*
X23693750Y-77756250D03*
X23038751Y-78486250D03*
D17*
G04 #@! TD*
G04 #@! TO.N,COL0*
G04 #@! TO.C,MX15*
X22383750Y-79216250D02*
X23693752Y-77756250D01*
D16*
G04 #@! TO.P,MX15,2*
G04 #@! TO.N,Net-(D15-Pad2)*
X28733750Y-76676250D03*
X28713750Y-76966250D03*
D17*
G04 #@! TD*
G04 #@! TO.N,Net-(D15-Pad2)*
G04 #@! TO.C,MX15*
X28693750Y-77256250D02*
X28733750Y-76676250D01*
D16*
G04 #@! TO.P,MX16,1*
G04 #@! TO.N,COL1*
X45125000Y-77756250D03*
X44470001Y-78486250D03*
D17*
G04 #@! TD*
G04 #@! TO.N,COL1*
G04 #@! TO.C,MX16*
X43815000Y-79216250D02*
X45125002Y-77756250D01*
D16*
G04 #@! TO.P,MX16,2*
G04 #@! TO.N,Net-(D16-Pad2)*
X50165000Y-76676250D03*
X50145000Y-76966250D03*
D17*
G04 #@! TD*
G04 #@! TO.N,Net-(D16-Pad2)*
G04 #@! TO.C,MX16*
X50125000Y-77256250D02*
X50165000Y-76676250D01*
D16*
G04 #@! TO.P,MX17,1*
G04 #@! TO.N,COL2*
X64175000Y-77756250D03*
X63520001Y-78486250D03*
D17*
G04 #@! TD*
G04 #@! TO.N,COL2*
G04 #@! TO.C,MX17*
X62865000Y-79216250D02*
X64175002Y-77756250D01*
D16*
G04 #@! TO.P,MX17,2*
G04 #@! TO.N,Net-(D17-Pad2)*
X69215000Y-76676250D03*
X69195000Y-76966250D03*
D17*
G04 #@! TD*
G04 #@! TO.N,Net-(D17-Pad2)*
G04 #@! TO.C,MX17*
X69175000Y-77256250D02*
X69215000Y-76676250D01*
D16*
G04 #@! TO.P,MX18,1*
G04 #@! TO.N,COL3*
X83225000Y-77756250D03*
X82570001Y-78486250D03*
D17*
G04 #@! TD*
G04 #@! TO.N,COL3*
G04 #@! TO.C,MX18*
X81915000Y-79216250D02*
X83225002Y-77756250D01*
D16*
G04 #@! TO.P,MX18,2*
G04 #@! TO.N,Net-(D18-Pad2)*
X88265000Y-76676250D03*
X88245000Y-76966250D03*
D17*
G04 #@! TD*
G04 #@! TO.N,Net-(D18-Pad2)*
G04 #@! TO.C,MX18*
X88225000Y-77256250D02*
X88265000Y-76676250D01*
D16*
G04 #@! TO.P,MX19,1*
G04 #@! TO.N,COL4*
X102275000Y-77756250D03*
X101620001Y-78486250D03*
D17*
G04 #@! TD*
G04 #@! TO.N,COL4*
G04 #@! TO.C,MX19*
X100965000Y-79216250D02*
X102275002Y-77756250D01*
D16*
G04 #@! TO.P,MX19,2*
G04 #@! TO.N,Net-(D19-Pad2)*
X107315000Y-76676250D03*
X107295000Y-76966250D03*
D17*
G04 #@! TD*
G04 #@! TO.N,Net-(D19-Pad2)*
G04 #@! TO.C,MX19*
X107275000Y-77256250D02*
X107315000Y-76676250D01*
D16*
G04 #@! TO.P,MX20,1*
G04 #@! TO.N,COL5*
X121325000Y-77756250D03*
X120670001Y-78486250D03*
D17*
G04 #@! TD*
G04 #@! TO.N,COL5*
G04 #@! TO.C,MX20*
X120015000Y-79216250D02*
X121325002Y-77756250D01*
D16*
G04 #@! TO.P,MX20,2*
G04 #@! TO.N,Net-(D20-Pad2)*
X126365000Y-76676250D03*
X126345000Y-76966250D03*
D17*
G04 #@! TD*
G04 #@! TO.N,Net-(D20-Pad2)*
G04 #@! TO.C,MX20*
X126325000Y-77256250D02*
X126365000Y-76676250D01*
D16*
G04 #@! TO.P,MX21,1*
G04 #@! TO.N,COL6*
X140375000Y-77756250D03*
X139720001Y-78486250D03*
D17*
G04 #@! TD*
G04 #@! TO.N,COL6*
G04 #@! TO.C,MX21*
X139065000Y-79216250D02*
X140375002Y-77756250D01*
D16*
G04 #@! TO.P,MX21,2*
G04 #@! TO.N,Net-(D21-Pad2)*
X145415000Y-76676250D03*
X145395000Y-76966250D03*
D17*
G04 #@! TD*
G04 #@! TO.N,Net-(D21-Pad2)*
G04 #@! TO.C,MX21*
X145375000Y-77256250D02*
X145415000Y-76676250D01*
D16*
G04 #@! TO.P,MX22,1*
G04 #@! TO.N,COL7*
X159425000Y-77756250D03*
X158770001Y-78486250D03*
D17*
G04 #@! TD*
G04 #@! TO.N,COL7*
G04 #@! TO.C,MX22*
X158115000Y-79216250D02*
X159425002Y-77756250D01*
D16*
G04 #@! TO.P,MX22,2*
G04 #@! TO.N,Net-(D22-Pad2)*
X164465000Y-76676250D03*
X164445000Y-76966250D03*
D17*
G04 #@! TD*
G04 #@! TO.N,Net-(D22-Pad2)*
G04 #@! TO.C,MX22*
X164425000Y-77256250D02*
X164465000Y-76676250D01*
D16*
G04 #@! TO.P,MX23,1*
G04 #@! TO.N,COL8*
X178475000Y-77756250D03*
X177820001Y-78486250D03*
D17*
G04 #@! TD*
G04 #@! TO.N,COL8*
G04 #@! TO.C,MX23*
X177165000Y-79216250D02*
X178475002Y-77756250D01*
D16*
G04 #@! TO.P,MX23,2*
G04 #@! TO.N,Net-(D23-Pad2)*
X183515000Y-76676250D03*
X183495000Y-76966250D03*
D17*
G04 #@! TD*
G04 #@! TO.N,Net-(D23-Pad2)*
G04 #@! TO.C,MX23*
X183475000Y-77256250D02*
X183515000Y-76676250D01*
D16*
G04 #@! TO.P,MX24,1*
G04 #@! TO.N,COL9*
X197525000Y-77756250D03*
X196870001Y-78486250D03*
D17*
G04 #@! TD*
G04 #@! TO.N,COL9*
G04 #@! TO.C,MX24*
X196215000Y-79216250D02*
X197525002Y-77756250D01*
D16*
G04 #@! TO.P,MX24,2*
G04 #@! TO.N,Net-(D24-Pad2)*
X202565000Y-76676250D03*
X202545000Y-76966250D03*
D17*
G04 #@! TD*
G04 #@! TO.N,Net-(D24-Pad2)*
G04 #@! TO.C,MX24*
X202525000Y-77256250D02*
X202565000Y-76676250D01*
D16*
G04 #@! TO.P,MX25,1*
G04 #@! TO.N,COL10*
X216575000Y-77756250D03*
X215920001Y-78486250D03*
D17*
G04 #@! TD*
G04 #@! TO.N,COL10*
G04 #@! TO.C,MX25*
X215265000Y-79216250D02*
X216575002Y-77756250D01*
D16*
G04 #@! TO.P,MX25,2*
G04 #@! TO.N,Net-(D25-Pad2)*
X221615000Y-76676250D03*
X221595000Y-76966250D03*
D17*
G04 #@! TD*
G04 #@! TO.N,Net-(D25-Pad2)*
G04 #@! TO.C,MX25*
X221575000Y-77256250D02*
X221615000Y-76676250D01*
D16*
G04 #@! TO.P,MX26,1*
G04 #@! TO.N,COL11*
X235625000Y-77756250D03*
X234970001Y-78486250D03*
D17*
G04 #@! TD*
G04 #@! TO.N,COL11*
G04 #@! TO.C,MX26*
X234315000Y-79216250D02*
X235625002Y-77756250D01*
D16*
G04 #@! TO.P,MX26,2*
G04 #@! TO.N,Net-(D26-Pad2)*
X240665000Y-76676250D03*
X240645000Y-76966250D03*
D17*
G04 #@! TD*
G04 #@! TO.N,Net-(D26-Pad2)*
G04 #@! TO.C,MX26*
X240625000Y-77256250D02*
X240665000Y-76676250D01*
D16*
G04 #@! TO.P,MX27,1*
G04 #@! TO.N,COL13*
X261818750Y-77756250D03*
X261163751Y-78486250D03*
D17*
G04 #@! TD*
G04 #@! TO.N,COL13*
G04 #@! TO.C,MX27*
X260508750Y-79216250D02*
X261818752Y-77756250D01*
D16*
G04 #@! TO.P,MX27,2*
G04 #@! TO.N,Net-(D27-Pad2)*
X266858750Y-76676250D03*
X266838750Y-76966250D03*
D17*
G04 #@! TD*
G04 #@! TO.N,Net-(D27-Pad2)*
G04 #@! TO.C,MX27*
X266818750Y-77256250D02*
X266858750Y-76676250D01*
D16*
G04 #@! TO.P,MX28,1*
G04 #@! TO.N,COL0*
X28456250Y-96806250D03*
X27801251Y-97536250D03*
D17*
G04 #@! TD*
G04 #@! TO.N,COL0*
G04 #@! TO.C,MX28*
X27146250Y-98266250D02*
X28456252Y-96806250D01*
D16*
G04 #@! TO.P,MX28,2*
G04 #@! TO.N,Net-(D28-Pad2)*
X33496250Y-95726250D03*
X33476250Y-96016250D03*
D17*
G04 #@! TD*
G04 #@! TO.N,Net-(D28-Pad2)*
G04 #@! TO.C,MX28*
X33456250Y-96306250D02*
X33496250Y-95726250D01*
D16*
G04 #@! TO.P,MX29,1*
G04 #@! TO.N,COL2*
X54650000Y-96806250D03*
X53995001Y-97536250D03*
D17*
G04 #@! TD*
G04 #@! TO.N,COL2*
G04 #@! TO.C,MX29*
X53340000Y-98266250D02*
X54650002Y-96806250D01*
D16*
G04 #@! TO.P,MX29,2*
G04 #@! TO.N,Net-(D29-Pad2)*
X59690000Y-95726250D03*
X59670000Y-96016250D03*
D17*
G04 #@! TD*
G04 #@! TO.N,Net-(D29-Pad2)*
G04 #@! TO.C,MX29*
X59650000Y-96306250D02*
X59690000Y-95726250D01*
D16*
G04 #@! TO.P,MX30,1*
G04 #@! TO.N,COL3*
X73700000Y-96806250D03*
X73045001Y-97536250D03*
D17*
G04 #@! TD*
G04 #@! TO.N,COL3*
G04 #@! TO.C,MX30*
X72390000Y-98266250D02*
X73700002Y-96806250D01*
D16*
G04 #@! TO.P,MX30,2*
G04 #@! TO.N,Net-(D30-Pad2)*
X78740000Y-95726250D03*
X78720000Y-96016250D03*
D17*
G04 #@! TD*
G04 #@! TO.N,Net-(D30-Pad2)*
G04 #@! TO.C,MX30*
X78700000Y-96306250D02*
X78740000Y-95726250D01*
D16*
G04 #@! TO.P,MX31,1*
G04 #@! TO.N,COL4*
X92750000Y-96806250D03*
X92095001Y-97536250D03*
D17*
G04 #@! TD*
G04 #@! TO.N,COL4*
G04 #@! TO.C,MX31*
X91440000Y-98266250D02*
X92750002Y-96806250D01*
D16*
G04 #@! TO.P,MX31,2*
G04 #@! TO.N,Net-(D31-Pad2)*
X97790000Y-95726250D03*
X97770000Y-96016250D03*
D17*
G04 #@! TD*
G04 #@! TO.N,Net-(D31-Pad2)*
G04 #@! TO.C,MX31*
X97750000Y-96306250D02*
X97790000Y-95726250D01*
D16*
G04 #@! TO.P,MX32,1*
G04 #@! TO.N,COL5*
X111800000Y-96806250D03*
X111145001Y-97536250D03*
D17*
G04 #@! TD*
G04 #@! TO.N,COL5*
G04 #@! TO.C,MX32*
X110490000Y-98266250D02*
X111800002Y-96806250D01*
D16*
G04 #@! TO.P,MX32,2*
G04 #@! TO.N,Net-(D32-Pad2)*
X116840000Y-95726250D03*
X116820000Y-96016250D03*
D17*
G04 #@! TD*
G04 #@! TO.N,Net-(D32-Pad2)*
G04 #@! TO.C,MX32*
X116800000Y-96306250D02*
X116840000Y-95726250D01*
D16*
G04 #@! TO.P,MX33,1*
G04 #@! TO.N,COL6*
X130850000Y-96806250D03*
X130195001Y-97536250D03*
D17*
G04 #@! TD*
G04 #@! TO.N,COL6*
G04 #@! TO.C,MX33*
X129540000Y-98266250D02*
X130850002Y-96806250D01*
D16*
G04 #@! TO.P,MX33,2*
G04 #@! TO.N,Net-(D33-Pad2)*
X135890000Y-95726250D03*
X135870000Y-96016250D03*
D17*
G04 #@! TD*
G04 #@! TO.N,Net-(D33-Pad2)*
G04 #@! TO.C,MX33*
X135850000Y-96306250D02*
X135890000Y-95726250D01*
D16*
G04 #@! TO.P,MX34,1*
G04 #@! TO.N,COL7*
X149900000Y-96806250D03*
X149245001Y-97536250D03*
D17*
G04 #@! TD*
G04 #@! TO.N,COL7*
G04 #@! TO.C,MX34*
X148590000Y-98266250D02*
X149900002Y-96806250D01*
D16*
G04 #@! TO.P,MX34,2*
G04 #@! TO.N,Net-(D34-Pad2)*
X154940000Y-95726250D03*
X154920000Y-96016250D03*
D17*
G04 #@! TD*
G04 #@! TO.N,Net-(D34-Pad2)*
G04 #@! TO.C,MX34*
X154900000Y-96306250D02*
X154940000Y-95726250D01*
D16*
G04 #@! TO.P,MX35,1*
G04 #@! TO.N,COL8*
X168950000Y-96806250D03*
X168295001Y-97536250D03*
D17*
G04 #@! TD*
G04 #@! TO.N,COL8*
G04 #@! TO.C,MX35*
X167640000Y-98266250D02*
X168950002Y-96806250D01*
D16*
G04 #@! TO.P,MX35,2*
G04 #@! TO.N,Net-(D35-Pad2)*
X173990000Y-95726250D03*
X173970000Y-96016250D03*
D17*
G04 #@! TD*
G04 #@! TO.N,Net-(D35-Pad2)*
G04 #@! TO.C,MX35*
X173950000Y-96306250D02*
X173990000Y-95726250D01*
D16*
G04 #@! TO.P,MX36,1*
G04 #@! TO.N,COL9*
X188000000Y-96806250D03*
X187345001Y-97536250D03*
D17*
G04 #@! TD*
G04 #@! TO.N,COL9*
G04 #@! TO.C,MX36*
X186690000Y-98266250D02*
X188000002Y-96806250D01*
D16*
G04 #@! TO.P,MX36,2*
G04 #@! TO.N,Net-(D36-Pad2)*
X193040000Y-95726250D03*
X193020000Y-96016250D03*
D17*
G04 #@! TD*
G04 #@! TO.N,Net-(D36-Pad2)*
G04 #@! TO.C,MX36*
X193000000Y-96306250D02*
X193040000Y-95726250D01*
D16*
G04 #@! TO.P,MX37,1*
G04 #@! TO.N,COL10*
X207050000Y-96806250D03*
X206395001Y-97536250D03*
D17*
G04 #@! TD*
G04 #@! TO.N,COL10*
G04 #@! TO.C,MX37*
X205740000Y-98266250D02*
X207050002Y-96806250D01*
D16*
G04 #@! TO.P,MX37,2*
G04 #@! TO.N,Net-(D37-Pad2)*
X212090000Y-95726250D03*
X212070000Y-96016250D03*
D17*
G04 #@! TD*
G04 #@! TO.N,Net-(D37-Pad2)*
G04 #@! TO.C,MX37*
X212050000Y-96306250D02*
X212090000Y-95726250D01*
D16*
G04 #@! TO.P,MX38,1*
G04 #@! TO.N,COL11*
X228481250Y-96806250D03*
X227826251Y-97536250D03*
D17*
G04 #@! TD*
G04 #@! TO.N,COL11*
G04 #@! TO.C,MX38*
X227171250Y-98266250D02*
X228481252Y-96806250D01*
D16*
G04 #@! TO.P,MX38,2*
G04 #@! TO.N,Net-(D38-Pad2)*
X233521250Y-95726250D03*
X233501250Y-96016250D03*
D17*
G04 #@! TD*
G04 #@! TO.N,Net-(D38-Pad2)*
G04 #@! TO.C,MX38*
X233481250Y-96306250D02*
X233521250Y-95726250D01*
D16*
G04 #@! TO.P,MX39,1*
G04 #@! TO.N,COL12*
X249912500Y-96806250D03*
X249257501Y-97536250D03*
D17*
G04 #@! TD*
G04 #@! TO.N,COL12*
G04 #@! TO.C,MX39*
X248602500Y-98266250D02*
X249912502Y-96806250D01*
D16*
G04 #@! TO.P,MX39,2*
G04 #@! TO.N,Net-(D39-Pad2)*
X254952500Y-95726250D03*
X254932500Y-96016250D03*
D17*
G04 #@! TD*
G04 #@! TO.N,Net-(D39-Pad2)*
G04 #@! TO.C,MX39*
X254912500Y-96306250D02*
X254952500Y-95726250D01*
D16*
G04 #@! TO.P,MX40,1*
G04 #@! TO.N,COL13*
X268962500Y-96806250D03*
X268307501Y-97536250D03*
D17*
G04 #@! TD*
G04 #@! TO.N,COL13*
G04 #@! TO.C,MX40*
X267652500Y-98266250D02*
X268962502Y-96806250D01*
D16*
G04 #@! TO.P,MX40,2*
G04 #@! TO.N,Net-(D40-Pad2)*
X274002500Y-95726250D03*
X273982500Y-96016250D03*
D17*
G04 #@! TD*
G04 #@! TO.N,Net-(D40-Pad2)*
G04 #@! TO.C,MX40*
X273962500Y-96306250D02*
X274002500Y-95726250D01*
D16*
G04 #@! TO.P,MX41,1*
G04 #@! TO.N,COL0*
X23693750Y-115856250D03*
X23038751Y-116586250D03*
D17*
G04 #@! TD*
G04 #@! TO.N,COL0*
G04 #@! TO.C,MX41*
X22383750Y-117316250D02*
X23693752Y-115856250D01*
D16*
G04 #@! TO.P,MX41,2*
G04 #@! TO.N,Net-(D41-Pad2)*
X28733750Y-114776250D03*
X28713750Y-115066250D03*
D17*
G04 #@! TD*
G04 #@! TO.N,Net-(D41-Pad2)*
G04 #@! TO.C,MX41*
X28693750Y-115356250D02*
X28733750Y-114776250D01*
D16*
G04 #@! TO.P,MX42,1*
G04 #@! TO.N,COL1*
X47506250Y-115856250D03*
X46851251Y-116586250D03*
D17*
G04 #@! TD*
G04 #@! TO.N,COL1*
G04 #@! TO.C,MX42*
X46196250Y-117316250D02*
X47506252Y-115856250D01*
D16*
G04 #@! TO.P,MX42,2*
G04 #@! TO.N,Net-(D42-Pad2)*
X52546250Y-114776250D03*
X52526250Y-115066250D03*
D17*
G04 #@! TD*
G04 #@! TO.N,Net-(D42-Pad2)*
G04 #@! TO.C,MX42*
X52506250Y-115356250D02*
X52546250Y-114776250D01*
D16*
G04 #@! TO.P,MX43,1*
G04 #@! TO.N,COL2*
X71318750Y-115856250D03*
X70663751Y-116586250D03*
D17*
G04 #@! TD*
G04 #@! TO.N,COL2*
G04 #@! TO.C,MX43*
X70008750Y-117316250D02*
X71318752Y-115856250D01*
D16*
G04 #@! TO.P,MX43,2*
G04 #@! TO.N,Net-(D43-Pad2)*
X76358750Y-114776250D03*
X76338750Y-115066250D03*
D17*
G04 #@! TD*
G04 #@! TO.N,Net-(D43-Pad2)*
G04 #@! TO.C,MX43*
X76318750Y-115356250D02*
X76358750Y-114776250D01*
D16*
G04 #@! TO.P,MX44,1*
G04 #@! TO.N,COL6*
X142756250Y-115856250D03*
X142101251Y-116586250D03*
D17*
G04 #@! TD*
G04 #@! TO.N,COL6*
G04 #@! TO.C,MX44*
X141446250Y-117316250D02*
X142756252Y-115856250D01*
D16*
G04 #@! TO.P,MX44,2*
G04 #@! TO.N,Net-(D44-Pad2)*
X147796250Y-114776250D03*
X147776250Y-115066250D03*
D17*
G04 #@! TD*
G04 #@! TO.N,Net-(D44-Pad2)*
G04 #@! TO.C,MX44*
X147756250Y-115356250D02*
X147796250Y-114776250D01*
D16*
G04 #@! TO.P,MX45,1*
G04 #@! TO.N,COL10*
X211812500Y-115856250D03*
X211157501Y-116586250D03*
D17*
G04 #@! TD*
G04 #@! TO.N,COL10*
G04 #@! TO.C,MX45*
X210502500Y-117316250D02*
X211812502Y-115856250D01*
D16*
G04 #@! TO.P,MX45,2*
G04 #@! TO.N,Net-(D45-Pad2)*
X216852500Y-114776250D03*
X216832500Y-115066250D03*
D17*
G04 #@! TD*
G04 #@! TO.N,Net-(D45-Pad2)*
G04 #@! TO.C,MX45*
X216812500Y-115356250D02*
X216852500Y-114776250D01*
D16*
G04 #@! TO.P,MX46,1*
G04 #@! TO.N,COL11*
X230862500Y-115856250D03*
X230207501Y-116586250D03*
D17*
G04 #@! TD*
G04 #@! TO.N,COL11*
G04 #@! TO.C,MX46*
X229552500Y-117316250D02*
X230862502Y-115856250D01*
D16*
G04 #@! TO.P,MX46,2*
G04 #@! TO.N,Net-(D46-Pad2)*
X235902500Y-114776250D03*
X235882500Y-115066250D03*
D17*
G04 #@! TD*
G04 #@! TO.N,Net-(D46-Pad2)*
G04 #@! TO.C,MX46*
X235862500Y-115356250D02*
X235902500Y-114776250D01*
D16*
G04 #@! TO.P,MX47,1*
G04 #@! TO.N,COL12*
X249912500Y-115856250D03*
X249257501Y-116586250D03*
D17*
G04 #@! TD*
G04 #@! TO.N,COL12*
G04 #@! TO.C,MX47*
X248602500Y-117316250D02*
X249912502Y-115856250D01*
D16*
G04 #@! TO.P,MX47,2*
G04 #@! TO.N,Net-(D47-Pad2)*
X254952500Y-114776250D03*
X254932500Y-115066250D03*
D17*
G04 #@! TD*
G04 #@! TO.N,Net-(D47-Pad2)*
G04 #@! TO.C,MX47*
X254912500Y-115356250D02*
X254952500Y-114776250D01*
D16*
G04 #@! TO.P,MX48,1*
G04 #@! TO.N,COL13*
X268962500Y-115856250D03*
X268307501Y-116586250D03*
D17*
G04 #@! TD*
G04 #@! TO.N,COL13*
G04 #@! TO.C,MX48*
X267652500Y-117316250D02*
X268962502Y-115856250D01*
D16*
G04 #@! TO.P,MX48,2*
G04 #@! TO.N,Net-(D48-Pad2)*
X274002500Y-114776250D03*
X273982500Y-115066250D03*
D17*
G04 #@! TD*
G04 #@! TO.N,Net-(D48-Pad2)*
G04 #@! TO.C,MX48*
X273962500Y-115356250D02*
X274002500Y-114776250D01*
D18*
G04 #@! TO.P,SW1,4*
G04 #@! TO.N,N/C*
X46300000Y-97706250D03*
G04 #@! TO.P,SW1,3*
X42600000Y-103906250D03*
G04 #@! TO.P,SW1,2*
G04 #@! TO.N,Net-(SW1-Pad2)*
X42600000Y-97706250D03*
G04 #@! TO.P,SW1,1*
G04 #@! TO.N,GND*
X46300000Y-103906250D03*
G04 #@! TD*
D19*
G04 #@! TO.P,U1,24*
G04 #@! TO.N,Net-(U1-Pad24)*
X18573750Y-74136250D03*
G04 #@! TO.P,U1,12*
G04 #@! TO.N,COL13*
X46513750Y-89376250D03*
G04 #@! TO.P,U1,23*
G04 #@! TO.N,GND*
X21113750Y-74136250D03*
G04 #@! TO.P,U1,22*
G04 #@! TO.N,Net-(SW1-Pad2)*
X23653750Y-74136250D03*
G04 #@! TO.P,U1,21*
G04 #@! TO.N,+5V*
X26193750Y-74136250D03*
G04 #@! TO.P,U1,20*
G04 #@! TO.N,ROW0*
X28733750Y-74136250D03*
G04 #@! TO.P,U1,19*
G04 #@! TO.N,ROW1*
X31273750Y-74136250D03*
G04 #@! TO.P,U1,18*
G04 #@! TO.N,COL2*
X33813750Y-74136250D03*
G04 #@! TO.P,U1,17*
G04 #@! TO.N,COL3*
X36353750Y-74136250D03*
G04 #@! TO.P,U1,16*
G04 #@! TO.N,COL7*
X38893750Y-74136250D03*
G04 #@! TO.P,U1,15*
G04 #@! TO.N,COL6*
X41433750Y-74136250D03*
G04 #@! TO.P,U1,14*
G04 #@! TO.N,COL5*
X43973750Y-74136250D03*
G04 #@! TO.P,U1,13*
G04 #@! TO.N,COL4*
X46513750Y-74136250D03*
G04 #@! TO.P,U1,11*
G04 #@! TO.N,COL12*
X43973750Y-89376250D03*
G04 #@! TO.P,U1,10*
G04 #@! TO.N,COL11*
X41433750Y-89376250D03*
G04 #@! TO.P,U1,9*
G04 #@! TO.N,COL10*
X38893750Y-89376250D03*
G04 #@! TO.P,U1,8*
G04 #@! TO.N,COL9*
X36353750Y-89376250D03*
G04 #@! TO.P,U1,7*
G04 #@! TO.N,COL8*
X33813750Y-89376250D03*
G04 #@! TO.P,U1,6*
G04 #@! TO.N,ROW3*
X31273750Y-89376250D03*
G04 #@! TO.P,U1,5*
G04 #@! TO.N,COL1*
X28733750Y-89376250D03*
G04 #@! TO.P,U1,4*
G04 #@! TO.N,GND*
X26193750Y-89376250D03*
G04 #@! TO.P,U1,3*
X23653750Y-89376250D03*
G04 #@! TO.P,U1,2*
G04 #@! TO.N,ROW2*
X21113750Y-89376250D03*
D20*
G04 #@! TO.P,U1,1*
G04 #@! TO.N,COL0*
X18573750Y-89376250D03*
G04 #@! TD*
D21*
G04 #@! TO.N,ROW0*
X33337500Y-66516250D02*
X52387500Y-66516250D01*
X52387500Y-66516250D02*
X71437500Y-66516250D01*
X71437500Y-66516250D02*
X90487500Y-66516250D01*
X90487500Y-66516250D02*
X109537500Y-66516250D01*
X110549500Y-66516250D02*
X128587500Y-66516250D01*
X109537500Y-66516250D02*
X110549500Y-66516250D01*
X128587500Y-66516250D02*
X147637500Y-66516250D01*
X147637500Y-66516250D02*
X166687500Y-66516250D01*
X166687500Y-66516250D02*
X185737500Y-66516250D01*
X186064502Y-66516250D02*
X204787500Y-66516250D01*
X185737500Y-66516250D02*
X186064502Y-66516250D01*
X204787500Y-66516250D02*
X223837500Y-66516250D01*
X223837500Y-66516250D02*
X242887500Y-66516250D01*
X243214502Y-66516250D02*
X261937500Y-66516250D01*
X242887500Y-66516250D02*
X243214502Y-66516250D01*
X276443250Y-85566250D02*
X275431250Y-85566250D01*
X276518251Y-85491249D02*
X276443250Y-85566250D01*
X276518251Y-77424489D02*
X276518251Y-85491249D01*
X265610012Y-66516250D02*
X276518251Y-77424489D01*
X261937500Y-66516250D02*
X265610012Y-66516250D01*
G04 #@! TO.N,Net-(D1-Pad2)*
X27477499Y-58751249D02*
X26352500Y-57626250D01*
X27622500Y-58896250D02*
X27477499Y-58751249D01*
X33337500Y-58896250D02*
X27622500Y-58896250D01*
G04 #@! TO.N,Net-(D2-Pad2)*
X46672500Y-58896250D02*
X45402500Y-57626250D01*
X52387500Y-58896250D02*
X46672500Y-58896250D01*
G04 #@! TO.N,Net-(D3-Pad2)*
X65032500Y-58206250D02*
X64412500Y-58206250D01*
X65722500Y-58896250D02*
X65032500Y-58206250D01*
X71437500Y-58896250D02*
X65722500Y-58896250D01*
G04 #@! TO.N,Net-(D4-Pad2)*
X84082500Y-58206250D02*
X83462500Y-58206250D01*
X84772500Y-58896250D02*
X84082500Y-58206250D01*
X90487500Y-58896250D02*
X84772500Y-58896250D01*
G04 #@! TO.N,Net-(D5-Pad2)*
X108267500Y-57626250D02*
X102552500Y-57626250D01*
X109537500Y-58896250D02*
X108267500Y-57626250D01*
G04 #@! TO.N,Net-(D6-Pad2)*
X122727499Y-58751249D02*
X121602500Y-57626250D01*
X122872500Y-58896250D02*
X122727499Y-58751249D01*
X128587500Y-58896250D02*
X122872500Y-58896250D01*
G04 #@! TO.N,Net-(D7-Pad2)*
X141232500Y-58206250D02*
X140612500Y-58206250D01*
X141922500Y-58896250D02*
X141232500Y-58206250D01*
X147637500Y-58896250D02*
X141922500Y-58896250D01*
G04 #@! TO.N,Net-(D8-Pad2)*
X160352500Y-58896250D02*
X159662500Y-58206250D01*
X166687500Y-58896250D02*
X160352500Y-58896250D01*
G04 #@! TO.N,Net-(D9-Pad2)*
X179402500Y-58896250D02*
X178712500Y-58206250D01*
X185737500Y-58896250D02*
X179402500Y-58896250D01*
G04 #@! TO.N,Net-(D10-Pad2)*
X199072500Y-58896250D02*
X197802500Y-57626250D01*
X204787500Y-58896250D02*
X199072500Y-58896250D01*
G04 #@! TO.N,Net-(D11-Pad2)*
X218122500Y-58896250D02*
X216852500Y-57626250D01*
X223837500Y-58896250D02*
X218122500Y-58896250D01*
G04 #@! TO.N,Net-(D12-Pad2)*
X237027499Y-58751249D02*
X235902500Y-57626250D01*
X237172500Y-58896250D02*
X237027499Y-58751249D01*
X242887500Y-58896250D02*
X237172500Y-58896250D01*
G04 #@! TO.N,Net-(D13-Pad2)*
X256077499Y-58751249D02*
X254952500Y-57626250D01*
X256222500Y-58896250D02*
X256077499Y-58751249D01*
X261937500Y-58896250D02*
X256222500Y-58896250D01*
G04 #@! TO.N,ROW1*
X57150000Y-85566250D02*
X76200000Y-85566250D01*
X76200000Y-85566250D02*
X95250000Y-85566250D01*
X95250000Y-85566250D02*
X114300000Y-85566250D01*
X114627002Y-85566250D02*
X133350000Y-85566250D01*
X114300000Y-85566250D02*
X114627002Y-85566250D01*
X152727002Y-85566250D02*
X152400000Y-85566250D01*
X133350000Y-85566250D02*
X152727002Y-85566250D01*
X152400000Y-85566250D02*
X171450000Y-85566250D01*
X171450000Y-85566250D02*
X190500000Y-85566250D01*
X190500000Y-85566250D02*
X209550000Y-85566250D01*
X209550000Y-85566250D02*
X228927002Y-85566250D01*
X228927002Y-85566250D02*
X247650000Y-85566250D01*
X228600000Y-85566250D02*
X228927002Y-85566250D01*
X254635000Y-85566250D02*
X254793750Y-85725000D01*
X247650000Y-85566250D02*
X254635000Y-85566250D01*
X36353750Y-70970752D02*
X36353750Y-70643750D01*
X36105751Y-71218751D02*
X36353750Y-70970752D01*
X34191249Y-71218751D02*
X36105751Y-71218751D01*
X31273750Y-74136250D02*
X34191249Y-71218751D01*
X43216093Y-80665641D02*
X41925452Y-79375000D01*
X44413907Y-80665641D02*
X43216093Y-80665641D01*
X57150000Y-85566250D02*
X56822998Y-85566250D01*
X53905001Y-82648253D02*
X53905001Y-81180249D01*
X53905001Y-81180249D02*
X52162101Y-79437349D01*
X56822998Y-85566250D02*
X53905001Y-82648253D01*
X52162101Y-79437349D02*
X45642199Y-79437349D01*
X45642199Y-79437349D02*
X44413907Y-80665641D01*
X41925452Y-79375000D02*
X31750000Y-79375000D01*
X31273750Y-78898750D02*
X31273750Y-74136250D01*
X31750000Y-79375000D02*
X31273750Y-78898750D01*
G04 #@! TO.N,Net-(D16-Pad2)*
X51435000Y-77946250D02*
X50165000Y-76676250D01*
X57150000Y-77946250D02*
X51435000Y-77946250D01*
G04 #@! TO.N,Net-(D17-Pad2)*
X70485000Y-77946250D02*
X69215000Y-76676250D01*
X76200000Y-77946250D02*
X70485000Y-77946250D01*
G04 #@! TO.N,Net-(D18-Pad2)*
X88845000Y-77256250D02*
X88225000Y-77256250D01*
X89535000Y-77946250D02*
X88845000Y-77256250D01*
X95250000Y-77946250D02*
X89535000Y-77946250D01*
G04 #@! TO.N,Net-(D19-Pad2)*
X108585000Y-77946250D02*
X107315000Y-76676250D01*
X114300000Y-77946250D02*
X108585000Y-77946250D01*
G04 #@! TO.N,Net-(D20-Pad2)*
X126945000Y-77256250D02*
X126325000Y-77256250D01*
X127635000Y-77946250D02*
X126945000Y-77256250D01*
X133350000Y-77946250D02*
X127635000Y-77946250D01*
G04 #@! TO.N,Net-(D21-Pad2)*
X146685000Y-77946250D02*
X145415000Y-76676250D01*
X152400000Y-77946250D02*
X146685000Y-77946250D01*
G04 #@! TO.N,Net-(D22-Pad2)*
X165115000Y-77946250D02*
X171450000Y-77946250D01*
X164425000Y-77256250D02*
X165115000Y-77946250D01*
G04 #@! TO.N,Net-(D23-Pad2)*
X185105990Y-76676250D02*
X183515000Y-76676250D01*
X189230000Y-76676250D02*
X185105990Y-76676250D01*
X190500000Y-77946250D02*
X189230000Y-76676250D01*
G04 #@! TO.N,Net-(D24-Pad2)*
X203689999Y-77801249D02*
X202565000Y-76676250D01*
X203835000Y-77946250D02*
X203689999Y-77801249D01*
X209550000Y-77946250D02*
X203835000Y-77946250D01*
G04 #@! TO.N,Net-(D25-Pad2)*
X222885000Y-77946250D02*
X221615000Y-76676250D01*
X228600000Y-77946250D02*
X222885000Y-77946250D01*
G04 #@! TO.N,Net-(D26-Pad2)*
X241789999Y-77801249D02*
X240665000Y-76676250D01*
X241935000Y-77946250D02*
X241789999Y-77801249D01*
X247650000Y-77946250D02*
X241935000Y-77946250D01*
G04 #@! TO.N,Net-(D27-Pad2)*
X265113751Y-75551251D02*
X266818750Y-77256250D01*
X257347499Y-75551251D02*
X265113751Y-75551251D01*
X254793750Y-78105000D02*
X257347499Y-75551251D01*
G04 #@! TO.N,Net-(D28-Pad2)*
X23827952Y-96996250D02*
X21431250Y-96996250D01*
X26547343Y-99715641D02*
X23827952Y-96996250D01*
X28742861Y-99715641D02*
X26547343Y-99715641D01*
X33456250Y-96306250D02*
X32152252Y-96306250D01*
X32152252Y-96306250D02*
X28742861Y-99715641D01*
G04 #@! TO.N,ROW2*
X261937500Y-104616250D02*
X243681250Y-104616250D01*
X242669250Y-104616250D02*
X239712500Y-104616250D01*
X243681250Y-104616250D02*
X242669250Y-104616250D01*
X239712500Y-104616250D02*
X219075000Y-104616250D01*
X218063000Y-104616250D02*
X200025000Y-104616250D01*
X219075000Y-104616250D02*
X218063000Y-104616250D01*
X200025000Y-104616250D02*
X180975000Y-104616250D01*
X180647998Y-104616250D02*
X161925000Y-104616250D01*
X180975000Y-104616250D02*
X180647998Y-104616250D01*
X161597998Y-104616250D02*
X142875000Y-104616250D01*
X161925000Y-104616250D02*
X161597998Y-104616250D01*
X126692002Y-104616250D02*
X123825000Y-104616250D01*
X142875000Y-104616250D02*
X126692002Y-104616250D01*
X122813000Y-104616250D02*
X104775000Y-104616250D01*
X123825000Y-104616250D02*
X122813000Y-104616250D01*
X104447998Y-104616250D02*
X85725000Y-104616250D01*
X104775000Y-104616250D02*
X104447998Y-104616250D01*
X85397998Y-104616250D02*
X66675000Y-104616250D01*
X85725000Y-104616250D02*
X85397998Y-104616250D01*
X22443250Y-104616250D02*
X21431250Y-104616250D01*
X22958251Y-105131251D02*
X22443250Y-104616250D01*
X47110001Y-105131251D02*
X22958251Y-105131251D01*
X47625002Y-104616250D02*
X47110001Y-105131251D01*
X66675000Y-104616250D02*
X47625002Y-104616250D01*
X20237451Y-90252549D02*
X21113750Y-89376250D01*
X20237451Y-103749453D02*
X20237451Y-90252549D01*
X21104248Y-104616250D02*
X20237451Y-103749453D01*
X21431250Y-104616250D02*
X21104248Y-104616250D01*
G04 #@! TO.N,Net-(D29-Pad2)*
X60960000Y-96996250D02*
X59690000Y-95726250D01*
X66675000Y-96996250D02*
X60960000Y-96996250D01*
G04 #@! TO.N,Net-(D30-Pad2)*
X80010000Y-96996250D02*
X78740000Y-95726250D01*
X85725000Y-96996250D02*
X80010000Y-96996250D01*
G04 #@! TO.N,Net-(D31-Pad2)*
X103007370Y-96306250D02*
X97750000Y-96306250D01*
X103697370Y-96996250D02*
X103007370Y-96306250D01*
X104775000Y-96996250D02*
X103697370Y-96996250D01*
G04 #@! TO.N,Net-(D32-Pad2)*
X122057370Y-96306250D02*
X116800000Y-96306250D01*
X122747370Y-96996250D02*
X122057370Y-96306250D01*
X123825000Y-96996250D02*
X122747370Y-96996250D01*
G04 #@! TO.N,Net-(D33-Pad2)*
X137014999Y-96851249D02*
X135890000Y-95726250D01*
X137160000Y-96996250D02*
X137014999Y-96851249D01*
X142875000Y-96996250D02*
X137160000Y-96996250D01*
G04 #@! TO.N,Net-(D34-Pad2)*
X156210000Y-96996250D02*
X154940000Y-95726250D01*
X161925000Y-96996250D02*
X156210000Y-96996250D01*
G04 #@! TO.N,Net-(D35-Pad2)*
X174640000Y-96996250D02*
X180975000Y-96996250D01*
X173950000Y-96306250D02*
X174640000Y-96996250D01*
G04 #@! TO.N,Net-(D36-Pad2)*
X193620000Y-96306250D02*
X193000000Y-96306250D01*
X194310000Y-96996250D02*
X193620000Y-96306250D01*
X200025000Y-96996250D02*
X194310000Y-96996250D01*
G04 #@! TO.N,Net-(D37-Pad2)*
X212670000Y-96306250D02*
X212050000Y-96306250D01*
X213360000Y-96996250D02*
X212670000Y-96306250D01*
X219075000Y-96996250D02*
X213360000Y-96996250D01*
G04 #@! TO.N,Net-(D38-Pad2)*
X234171250Y-96996250D02*
X233481250Y-96306250D01*
X239712500Y-96996250D02*
X234171250Y-96996250D01*
G04 #@! TO.N,Net-(D39-Pad2)*
X253361510Y-95726250D02*
X254952500Y-95726250D01*
X249075260Y-100012500D02*
X253361510Y-95726250D01*
X248300452Y-100012500D02*
X249075260Y-100012500D01*
X245284202Y-96996250D02*
X248300452Y-100012500D01*
X243681250Y-96996250D02*
X245284202Y-96996250D01*
G04 #@! TO.N,Net-(D40-Pad2)*
X262699499Y-96234251D02*
X261937500Y-96996250D01*
X263577501Y-95356249D02*
X262699499Y-96234251D01*
X273012499Y-95356249D02*
X263577501Y-95356249D01*
X273962500Y-96306250D02*
X273012499Y-95356249D01*
G04 #@! TO.N,Net-(D41-Pad2)*
X30003750Y-116046250D02*
X28733750Y-114776250D01*
X36512500Y-116046250D02*
X30003750Y-116046250D01*
G04 #@! TO.N,ROW3*
X36512500Y-123666250D02*
X61912500Y-123666250D01*
X61912500Y-123666250D02*
X85725000Y-123666250D01*
X85725000Y-123666250D02*
X154781250Y-123666250D01*
X194817672Y-123666250D02*
X223837500Y-123666250D01*
X154781250Y-123666250D02*
X194817672Y-123666250D01*
X224164502Y-123666250D02*
X242887500Y-123666250D01*
X223837500Y-123666250D02*
X224164502Y-123666250D01*
X242887500Y-123666250D02*
X261937500Y-123666250D01*
X268446250Y-112930750D02*
X268446250Y-111918750D01*
X262862501Y-118514499D02*
X268446250Y-112930750D01*
X262862501Y-123068251D02*
X262862501Y-118514499D01*
X262264502Y-123666250D02*
X262862501Y-123068251D01*
X261937500Y-123666250D02*
X262264502Y-123666250D01*
G04 #@! TO.N,Net-(D42-Pad2)*
X53816250Y-116046250D02*
X52546250Y-114776250D01*
X61912500Y-116046250D02*
X53816250Y-116046250D01*
G04 #@! TO.N,Net-(D43-Pad2)*
X77483749Y-115901249D02*
X76358750Y-114776250D01*
X77628750Y-116046250D02*
X77483749Y-115901249D01*
X85725000Y-116046250D02*
X77628750Y-116046250D01*
G04 #@! TO.N,Net-(D44-Pad2)*
X148336250Y-114776250D02*
X147756250Y-115356250D01*
X153511250Y-114776250D02*
X148336250Y-114776250D01*
X154781250Y-116046250D02*
X153511250Y-114776250D01*
G04 #@! TO.N,Net-(D45-Pad2)*
X218122500Y-116046250D02*
X216852500Y-114776250D01*
X223837500Y-116046250D02*
X218122500Y-116046250D01*
G04 #@! TO.N,Net-(D46-Pad2)*
X237172500Y-116046250D02*
X235902500Y-114776250D01*
X242887500Y-116046250D02*
X237172500Y-116046250D01*
G04 #@! TO.N,Net-(D47-Pad2)*
X255532500Y-115356250D02*
X254912500Y-115356250D01*
X256222500Y-116046250D02*
X255532500Y-115356250D01*
X261937500Y-116046250D02*
X256222500Y-116046250D01*
G04 #@! TO.N,COL2*
X48218346Y-78703594D02*
X45625852Y-76111100D01*
X52064756Y-78703594D02*
X48218346Y-78703594D01*
X54355010Y-80993848D02*
X52064756Y-78703594D01*
X57897403Y-80993849D02*
X54355010Y-80993848D01*
X62865000Y-79216250D02*
X59675002Y-79216250D01*
X59675002Y-79216250D02*
X57897403Y-80993849D01*
X35788600Y-76111100D02*
X33813750Y-74136250D01*
X45625852Y-76111100D02*
X35788600Y-76111100D01*
G04 #@! TO.N,COL3*
X36353750Y-75375525D02*
X36632125Y-75653900D01*
X36353750Y-74136250D02*
X36353750Y-75375525D01*
X49041348Y-75653900D02*
X49523948Y-75171300D01*
X36632125Y-75653900D02*
X49041348Y-75653900D01*
X77870050Y-75171300D02*
X81915000Y-79216250D01*
X49523948Y-75171300D02*
X77870050Y-75171300D01*
G04 #@! TO.N,COL4*
X95885000Y-74136250D02*
X100965000Y-79216250D01*
X46513750Y-74136250D02*
X95885000Y-74136250D01*
G04 #@! TO.N,COL5*
X45175051Y-72934949D02*
X52957849Y-72934949D01*
X43973750Y-74136250D02*
X45175051Y-72934949D01*
X114484990Y-73686240D02*
X120015000Y-79216250D01*
X53709140Y-73686240D02*
X114484990Y-73686240D01*
X52957849Y-72934949D02*
X53709140Y-73686240D01*
G04 #@! TO.N,COL6*
X41433750Y-74136250D02*
X43154600Y-72415400D01*
X43154600Y-72415400D02*
X53860700Y-72415400D01*
X53860700Y-72415400D02*
X54635400Y-73190100D01*
X135808850Y-73190100D02*
X140375000Y-77756250D01*
X54635400Y-73190100D02*
X135808850Y-73190100D01*
G04 #@! TO.N,COL7*
X154363550Y-72694800D02*
X159425000Y-77756250D01*
X56299100Y-72694800D02*
X154363550Y-72694800D01*
X55549800Y-71945500D02*
X56299100Y-72694800D01*
X38893750Y-74136250D02*
X41084500Y-71945500D01*
X41084500Y-71945500D02*
X55549800Y-71945500D01*
G04 #@! TO.N,COL8*
X36918641Y-90577551D02*
X39051090Y-92710000D01*
X33813750Y-89376250D02*
X35015051Y-90577551D01*
X35015051Y-90577551D02*
X36918641Y-90577551D01*
X39051090Y-92710000D02*
X53297700Y-92710000D01*
X53297700Y-92710000D02*
X54364500Y-91643200D01*
X163786950Y-91643200D02*
X168950000Y-96806250D01*
X54364500Y-91643200D02*
X163786950Y-91643200D01*
G04 #@! TO.N,COL9*
X39221429Y-92243929D02*
X52536071Y-92243929D01*
X36353750Y-89376250D02*
X39221429Y-92243929D01*
X52536071Y-92243929D02*
X53603710Y-91176290D01*
X182370040Y-91176290D02*
X186799350Y-95605600D01*
X53603710Y-91176290D02*
X182370040Y-91176290D01*
X186799350Y-95605600D02*
X188000000Y-96806250D01*
G04 #@! TO.N,COL10*
X200970030Y-90726280D02*
X207050000Y-96806250D01*
X52174120Y-90726280D02*
X200970030Y-90726280D01*
X51106481Y-91793919D02*
X52174120Y-90726280D01*
X38893750Y-89376250D02*
X41311419Y-91793919D01*
X41311419Y-91793919D02*
X51106481Y-91793919D01*
G04 #@! TO.N,COL11*
X50095990Y-91343910D02*
X51163630Y-90276270D01*
X42162135Y-91343910D02*
X50095990Y-91343910D01*
X41433750Y-89376250D02*
X41433750Y-90615525D01*
X41433750Y-90615525D02*
X42162135Y-91343910D01*
X221951270Y-90276270D02*
X228481250Y-96806250D01*
X51163630Y-90276270D02*
X221951270Y-90276270D01*
G04 #@! TO.N,COL12*
X43973750Y-89376250D02*
X45491400Y-90893900D01*
X45491400Y-90893900D02*
X49479200Y-90893900D01*
X49479200Y-90893900D02*
X50546840Y-89826260D01*
X241432510Y-89826260D02*
X241300000Y-89826260D01*
X248602500Y-96996250D02*
X241432510Y-89826260D01*
X248602500Y-98266250D02*
X248602500Y-96996250D01*
X50546840Y-89826260D02*
X241300000Y-89826260D01*
G04 #@! TO.N,COL13*
X46513750Y-89376250D02*
X260051550Y-89376250D01*
X260438751Y-79286249D02*
X260508750Y-79216250D01*
X260438751Y-88989049D02*
X260438751Y-79286249D01*
X260051550Y-89376250D02*
X260438751Y-88989049D01*
G04 #@! TO.N,GND*
X23653750Y-89376250D02*
X26193750Y-89376250D01*
X45500000Y-103906250D02*
X46300000Y-103906250D01*
X35869999Y-94276249D02*
X45500000Y-103906250D01*
X31093749Y-94276249D02*
X35869999Y-94276249D01*
X26193750Y-89376250D02*
X31093749Y-94276249D01*
X22777451Y-88499951D02*
X23653750Y-89376250D01*
X19913749Y-85636249D02*
X22777451Y-88499951D01*
X19913749Y-76575526D02*
X19913749Y-85636249D01*
X21113750Y-75375525D02*
X19913749Y-76575526D01*
X21113750Y-74136250D02*
X21113750Y-75375525D01*
G04 #@! TO.N,Net-(SW1-Pad2)*
X41800000Y-97706250D02*
X37756250Y-93662500D01*
X42600000Y-97706250D02*
X41800000Y-97706250D01*
X24530049Y-75012549D02*
X23653750Y-74136250D01*
X25143751Y-75626251D02*
X24530049Y-75012549D01*
X25143751Y-78504547D02*
X25143751Y-75626251D01*
X23812500Y-79835798D02*
X25143751Y-78504547D01*
X23812500Y-82677074D02*
X23812500Y-79835798D01*
X29935051Y-88799625D02*
X23812500Y-82677074D01*
X29935051Y-89815477D02*
X29935051Y-88799625D01*
X33782074Y-93662500D02*
X29935051Y-89815477D01*
X37756250Y-93662500D02*
X33782074Y-93662500D01*
G04 #@! TD*
M02*
