M48
; DRILL file {KiCad (5.1.2)-1} date 2/17/2020 5:06:50 PM
; FORMAT={3:3/ absolute / metric / suppress leading zeros}
; #@! TF.CreationDate,2020-02-17T17:06:50-06:00
; #@! TF.GenerationSoftware,Kicad,Pcbnew,(5.1.2)-1
FMAT,2
METRIC,TZ
T1C0.762
T2C1.092
T3C1.470
T4C1.750
T5C3.048
T6C3.988
%
G90
G05
T1
X28734Y-70644
X36354Y-70644
X33338Y-58896
X33338Y-66516
X244475Y-58896
X244475Y-66516
X66675Y-96996
X66675Y-104616
X61913Y-116046
X61913Y-123666
X254794Y-78105
X254794Y-85725
X223838Y-116046
X223838Y-123666
X261938Y-116046
X261938Y-123666
X161925Y-96996
X161925Y-104616
X268446Y-111919
X276066Y-111919
X76200Y-77946
X76200Y-85566
X128588Y-58896
X128588Y-66516
X200025Y-96996
X200025Y-104616
X247650Y-77946
X247650Y-85566
X166688Y-58896
X166688Y-66516
X152400Y-77946
X152400Y-85566
X57150Y-77946
X57150Y-85566
X71438Y-58896
X71438Y-66516
X204788Y-116046
X204788Y-123666
X85725Y-96996
X85725Y-104616
X180975Y-96996
X180975Y-104616
X104775Y-96996
X104775Y-104616
X242888Y-116046
X242888Y-123666
X114300Y-77946
X114300Y-85566
X174625Y-116046
X174625Y-123666
X109538Y-58896
X109538Y-66516
X123825Y-96996
X123825Y-104616
X238919Y-96996
X238919Y-104616
X95250Y-77946
X95250Y-85566
X90488Y-58896
X90488Y-66516
X142875Y-96996
X142875Y-104616
X171450Y-77946
X171450Y-85566
X204788Y-58896
X204788Y-66516
X275431Y-77946
X275431Y-85566
X228600Y-77946
X228600Y-85566
X209550Y-77946
X209550Y-85566
X153194Y-116046
X153194Y-123666
X241300Y-58896
X241300Y-66516
X134144Y-116046
X134144Y-123666
X255746Y-107950
X263366Y-107950
X36512Y-116046
X36512Y-123666
X147638Y-58896
X147638Y-66516
X85725Y-116046
X85725Y-123666
X133350Y-77946
X133350Y-85566
X52388Y-58896
X52388Y-66516
X219075Y-96996
X219075Y-104616
X190500Y-77946
X190500Y-85566
X185737Y-58896
X185737Y-66516
X235744Y-107950
X243364Y-107950
X21431Y-96996
X21431Y-104616
X223838Y-58896
X223838Y-66516
X103188Y-115253
X103188Y-122873
T2
X18574Y-74136
X18574Y-89376
X21114Y-74136
X21114Y-89376
X23654Y-74136
X23654Y-89376
X26194Y-74136
X26194Y-89376
X28734Y-74136
X28734Y-89376
X31274Y-74136
X31274Y-89376
X33814Y-74136
X33814Y-89376
X36354Y-74136
X36354Y-89376
X38894Y-74136
X38894Y-89376
X41434Y-74136
X41434Y-89376
X43974Y-74136
X43974Y-89376
X46514Y-74136
X46514Y-89376
T3
X129540Y-98266
X130850Y-96806
X135850Y-96306
X135890Y-95726
X210503Y-117316
X211813Y-115856
X216813Y-115356
X216853Y-114776
X186690Y-98266
X188000Y-96806
X193000Y-96306
X193040Y-95726
X91440Y-117316
X92750Y-115856
X97750Y-115356
X97790Y-114776
X53340Y-98266
X54650Y-96806
X59650Y-96306
X59690Y-95726
X70009Y-117316
X71319Y-115856
X76319Y-115356
X76359Y-114776
X210503Y-60166
X211813Y-58706
X216813Y-58206
X216853Y-57626
X265271Y-98266
X266581Y-96806
X271581Y-96306
X271621Y-95726
X153352Y-60166
X154663Y-58706
X159663Y-58206
X159702Y-57626
X62865Y-79216
X64175Y-77756
X69175Y-77256
X69215Y-76676
X248603Y-117316
X249913Y-115856
X254913Y-115356
X254952Y-114776
X196215Y-79216
X197525Y-77756
X202525Y-77256
X202565Y-76676
X100965Y-79216
X102275Y-77756
X107275Y-77256
X107315Y-76676
X243840Y-98266
X245150Y-96806
X250150Y-96306
X250190Y-95726
X120015Y-79216
X121325Y-77756
X126325Y-77256
X126365Y-76676
X267652Y-60166
X268963Y-58706
X273963Y-58206
X274003Y-57626
X148590Y-98266
X149900Y-96806
X154900Y-96306
X154940Y-95726
X96203Y-60166
X97512Y-58706
X102513Y-58206
X102552Y-57626
X158115Y-79216
X159425Y-77756
X164425Y-77256
X164465Y-76676
X267652Y-117316
X268963Y-115856
X273963Y-115356
X274003Y-114776
X234315Y-79216
X235625Y-77756
X240625Y-77256
X240665Y-76676
X227171Y-98266
X228481Y-96806
X233481Y-96306
X233521Y-95726
X162878Y-117316
X164188Y-115856
X169188Y-115356
X169228Y-114776
X191453Y-117316
X192763Y-115856
X197763Y-115356
X197803Y-114776
X177165Y-79216
X178475Y-77756
X183475Y-77256
X183515Y-76676
X229552Y-60166
X230863Y-58706
X235863Y-58206
X235903Y-57626
X58103Y-60166
X59413Y-58706
X64413Y-58206
X64453Y-57626
X81915Y-79216
X83225Y-77756
X88225Y-77256
X88265Y-76676
X248603Y-98266
X249913Y-96806
X254913Y-96306
X254952Y-95726
X260509Y-79216
X261819Y-77756
X266819Y-77256
X266859Y-76676
X39053Y-60166
X40363Y-58706
X45363Y-58206
X45403Y-57626
X22384Y-117316
X23694Y-115856
X28694Y-115356
X28734Y-114776
X224790Y-98266
X226100Y-96806
X231100Y-96306
X231140Y-95726
X72390Y-98266
X73700Y-96806
X78700Y-96306
X78740Y-95726
X77153Y-60166
X78462Y-58706
X83462Y-58206
X83503Y-57626
X267652Y-98266
X268963Y-96806
X273963Y-96306
X274003Y-95726
X215265Y-79216
X216575Y-77756
X221575Y-77256
X221615Y-76676
X115253Y-60166
X116563Y-58706
X121563Y-58206
X121602Y-57626
X167640Y-98266
X168950Y-96806
X173950Y-96306
X173990Y-95726
X229552Y-117316
X230863Y-115856
X235863Y-115356
X235903Y-114776
X205740Y-98266
X207050Y-96806
X212050Y-96306
X212090Y-95726
X20002Y-60166
X21313Y-58706
X26313Y-58206
X26353Y-57626
X122396Y-117316
X123706Y-115856
X128706Y-115356
X128746Y-114776
X110490Y-98266
X111800Y-96806
X116800Y-96306
X116840Y-95726
X258128Y-60166
X259438Y-58706
X264438Y-58206
X264477Y-57626
X255746Y-98266
X257056Y-96806
X262056Y-96306
X262096Y-95726
X191453Y-60166
X192763Y-58706
X197763Y-58206
X197803Y-57626
X43815Y-79216
X45125Y-77756
X50125Y-77256
X50165Y-76676
X134302Y-60166
X135612Y-58706
X140612Y-58206
X140653Y-57626
X139065Y-79216
X140375Y-77756
X145375Y-77256
X145415Y-76676
X248603Y-60166
X249913Y-58706
X254913Y-58206
X254952Y-57626
X46196Y-117316
X47506Y-115856
X52506Y-115356
X52546Y-114776
X27146Y-98266
X28456Y-96806
X33456Y-96306
X33496Y-95726
X22384Y-79216
X23694Y-77756
X28694Y-77256
X28734Y-76676
X91440Y-98266
X92750Y-96806
X97750Y-96306
X97790Y-95726
X172403Y-60166
X173713Y-58706
X178713Y-58206
X178753Y-57626
X141446Y-117316
X142756Y-115856
X147756Y-115356
X147796Y-114776
T4
X233045Y-81756
X243205Y-81756
X225901Y-100806
X236061Y-100806
X161607Y-119856
X171767Y-119856
X190183Y-119856
X200343Y-119856
X175895Y-81756
X186055Y-81756
X228283Y-62706
X238443Y-62706
X56832Y-62706
X66993Y-62706
X80645Y-81756
X90805Y-81756
X247333Y-100806
X257493Y-100806
X259239Y-81756
X269399Y-81756
X37783Y-62706
X47943Y-62706
X21114Y-119856
X31274Y-119856
X223520Y-100806
X233680Y-100806
X71120Y-100806
X81280Y-100806
X75882Y-62706
X86043Y-62706
X266383Y-100806
X276542Y-100806
X213995Y-81756
X224155Y-81756
X113983Y-62706
X124143Y-62706
X166370Y-100806
X176530Y-100806
X228283Y-119856
X238443Y-119856
X204470Y-100806
X214630Y-100806
X18733Y-62706
X28892Y-62706
X121126Y-119856
X131286Y-119856
X109220Y-100806
X119380Y-100806
X256858Y-62706
X267017Y-62706
X254476Y-100806
X264636Y-100806
X190183Y-62706
X200343Y-62706
X42545Y-81756
X52705Y-81756
X133033Y-62706
X143193Y-62706
X137795Y-81756
X147955Y-81756
X247333Y-62706
X257493Y-62706
X44926Y-119856
X55086Y-119856
X25876Y-100806
X36036Y-100806
X21114Y-81756
X31274Y-81756
X90170Y-100806
X100330Y-100806
X171133Y-62706
X181293Y-62706
X140176Y-119856
X150336Y-119856
X128270Y-100806
X138430Y-100806
X209233Y-119856
X219392Y-119856
X185420Y-100806
X195580Y-100806
X90170Y-119856
X100330Y-119856
X52070Y-100806
X62230Y-100806
X68739Y-119856
X78899Y-119856
X209233Y-62706
X219392Y-62706
X264001Y-100806
X274161Y-100806
X152082Y-62706
X162243Y-62706
X61595Y-81756
X71755Y-81756
X247333Y-119856
X257493Y-119856
X194945Y-81756
X205105Y-81756
X99695Y-81756
X109855Y-81756
X242570Y-100806
X252730Y-100806
X118745Y-81756
X128905Y-81756
X266383Y-62706
X276542Y-62706
X147320Y-100806
X157480Y-100806
X94933Y-62706
X105093Y-62706
X156845Y-81756
X167005Y-81756
X266383Y-119856
X276542Y-119856
T5
X95256Y-126841
X195256Y-126841
X154750Y-126841
X178626Y-126841
X114268Y-126841
X138144Y-126841
X249999Y-55721
X273876Y-55721
X247618Y-107791
X271494Y-107791
T6
X238125Y-81756
X230981Y-100806
X154750Y-111601
X166688Y-119856
X178626Y-111601
X195263Y-119856
X180975Y-81756
X233363Y-62706
X61913Y-62706
X85725Y-81756
X252413Y-100806
X264319Y-81756
X42863Y-62706
X26194Y-119856
X228600Y-100806
X76200Y-100806
X80962Y-62706
X271463Y-100806
X219075Y-81756
X119063Y-62706
X171450Y-100806
X233363Y-119856
X209550Y-100806
X23813Y-62706
X114268Y-111601
X126206Y-119856
X138144Y-111601
X114300Y-100806
X249999Y-70961
X261938Y-62706
X273876Y-70961
X247618Y-92551
X259556Y-100806
X271494Y-92551
X195263Y-62706
X47625Y-81756
X138112Y-62706
X142875Y-81756
X252413Y-62706
X50006Y-119856
X30956Y-100806
X26194Y-81756
X95250Y-100806
X176213Y-62706
X95256Y-111601
X145256Y-119856
X195256Y-111601
X133350Y-100806
X214313Y-119856
X190500Y-100806
X95250Y-119856
X57150Y-100806
X73819Y-119856
X214313Y-62706
X269081Y-100806
X157163Y-62706
X66675Y-81756
X252413Y-119856
X200025Y-81756
X104775Y-81756
X247650Y-100806
X123825Y-81756
X271463Y-62706
X152400Y-100806
X100012Y-62706
X161925Y-81756
X271463Y-119856
T0
M30
